<svg version="1.1" id="Layer_1" xmlns="http://www.w3.org/2000/svg" xmlns:xlink="http://www.w3.org/1999/xlink" x="0px" y="0px"
	 width="100%" viewBox="0 0 1200 1200" enable-background="new 0 0 1200 1200" xml:space="preserve">
<path fill="#2F2D2E" opacity="1.000000" stroke="none" 
	d="
M802.000000,1201.000000 
	C534.666687,1201.000000 267.833344,1201.000000 1.000000,1201.000000 
	C1.000000,801.000000 1.000000,401.000000 1.000000,1.000000 
	C401.000000,1.000000 801.000000,1.000000 1201.000000,1.000000 
	C1201.000000,401.000000 1201.000000,801.000000 1201.000000,1201.000000 
	C1068.166626,1201.000000 935.333313,1201.000000 802.000000,1201.000000 
M1026.181763,799.682068 
	C1023.546265,799.454712 1020.910828,799.030029 1018.275208,799.028748 
	C943.945984,798.992920 869.616821,799.012512 795.287659,798.949646 
	C792.533875,798.947327 789.780823,798.208496 787.280334,797.213623 
	C793.867249,789.283142 800.448303,781.347839 807.042053,773.423035 
	C827.255615,749.129028 847.517639,724.875305 867.679321,700.538330 
	C892.614990,670.438599 917.452942,640.257996 942.371094,610.143738 
	C947.437927,604.020264 947.464539,600.011414 942.294922,593.803772 
	C927.180786,575.654907 912.083313,557.492188 897.002930,539.315308 
	C876.398804,514.480591 855.833252,489.613861 835.220154,464.786621 
	C813.331055,438.422638 791.396912,412.096069 769.498718,385.739624 
	C750.472229,362.839600 731.451050,339.935059 712.459656,317.005920 
	C695.377991,296.382324 678.303345,275.752655 661.292908,255.070328 
	C644.389832,234.518555 627.630005,213.848724 610.685974,193.330902 
	C603.643311,184.802765 600.061462,184.982010 593.053955,193.621948 
	C592.949036,193.751236 592.862305,193.895279 592.756409,194.023621 
	C575.821106,214.550140 558.913940,235.099991 541.940552,255.594971 
	C523.485229,277.879456 504.946533,300.094940 486.484039,322.373505 
	C466.108795,346.960144 445.800446,371.602295 425.422516,396.186707 
	C408.016663,417.185486 390.549133,438.133148 373.116730,459.109894 
	C352.921387,483.411285 332.729156,507.715210 312.545776,532.026489 
	C295.759705,552.245789 278.910675,572.413635 262.251312,592.736816 
	C256.157715,600.170593 256.593231,603.851013 262.616669,611.072632 
	C286.051025,639.168396 309.411316,667.326050 332.758423,695.494568 
	C356.212585,723.792236 379.627441,752.122498 403.037933,780.456360 
	C408.162201,786.658264 413.195160,792.935608 418.937347,799.998901 
	C415.863861,799.998901 413.912537,799.998962 411.961243,799.998962 
	C336.139374,799.998962 260.317505,799.997375 184.495651,800.006592 
	C182.332901,800.006897 180.170135,800.121338 177.560272,800.224487 
	C177.249023,800.397095 177.143295,800.654236 177.127640,801.927368 
	C177.158844,844.282593 177.190033,886.637878 177.216171,929.457764 
	C177.380051,929.783508 177.640442,929.909180 178.927719,929.959473 
	C180.427002,929.973633 181.926270,930.000122 183.425552,930.000122 
	C295.557800,930.000671 407.690063,930.014221 519.822266,929.942200 
	C524.260437,929.939331 527.985535,930.818176 530.890137,934.369507 
	C540.995422,946.725159 551.141296,959.047546 561.279663,971.376099 
	C572.579773,985.117249 583.812378,998.915039 595.224915,1012.562317 
	C601.132874,1019.627136 602.641541,1019.515137 608.724670,1012.697021 
	C608.835632,1012.572754 608.952148,1012.453308 609.057739,1012.324646 
	C629.839661,987.001465 650.662598,961.711792 671.361145,936.320679 
	C674.876953,932.007812 678.851990,929.905396 684.596497,929.911438 
	C796.062195,930.029053 907.528015,930.001343 1018.993835,929.994873 
	C1021.323547,929.994751 1023.653320,929.892151 1026.443237,929.787292 
	C1026.761963,929.604492 1026.866211,929.337830 1026.846436,928.055603 
	C1026.816284,885.711914 1026.786011,843.368164 1026.904663,800.546204 
	C1026.907104,800.379333 1026.909424,800.212463 1026.181763,799.682068 
z"/>
<path fill="#5A4AE2" opacity="1.000000" stroke="none" 
	d="
M1025.983032,929.837280 
	C1023.653320,929.892151 1021.323547,929.994751 1018.993835,929.994873 
	C907.528015,930.001343 796.062195,930.029053 684.596497,929.911438 
	C678.851990,929.905396 674.876953,932.007812 671.361145,936.320679 
	C650.662598,961.711792 629.839661,987.001465 609.057739,1012.324646 
	C608.952148,1012.453308 608.835632,1012.572754 608.724670,1012.697021 
	C602.641541,1019.515137 601.132874,1019.627136 595.224915,1012.562317 
	C583.812378,998.915039 572.579773,985.117249 561.279663,971.376099 
	C551.141296,959.047546 540.995422,946.725159 530.890137,934.369507 
	C527.985535,930.818176 524.260437,929.939331 519.822266,929.942200 
	C407.690063,930.014221 295.557800,930.000671 183.425552,930.000122 
	C181.926270,930.000122 180.427002,929.973633 178.347626,929.743896 
	C177.605194,929.329773 177.423080,929.151367 177.221222,928.993103 
	C177.190033,886.637878 177.158844,844.282593 177.329987,801.343018 
	C177.712646,800.584839 177.871002,800.392761 178.007385,800.182556 
	C180.170135,800.121338 182.332901,800.006897 184.495651,800.006592 
	C260.317505,799.997375 336.139374,799.998962 411.961243,799.998962 
	C413.912537,799.998962 415.863861,799.998901 418.937347,799.998901 
	C413.195160,792.935608 408.162201,786.658264 403.037933,780.456360 
	C379.627441,752.122498 356.212585,723.792236 332.758423,695.494568 
	C309.411316,667.326050 286.051025,639.168396 262.616669,611.072632 
	C256.593231,603.851013 256.157715,600.170593 262.251312,592.736816 
	C278.910675,572.413635 295.759705,552.245789 312.545776,532.026489 
	C332.729156,507.715210 352.921387,483.411285 373.116730,459.109894 
	C390.549133,438.133148 408.016663,417.185486 425.422516,396.186707 
	C445.800446,371.602295 466.108795,346.960144 486.484039,322.373505 
	C504.946533,300.094940 523.485229,277.879456 541.940552,255.594971 
	C558.913940,235.099991 575.821106,214.550140 592.756409,194.023621 
	C592.862305,193.895279 592.949036,193.751236 593.053955,193.621948 
	C600.061462,184.982010 603.643311,184.802765 610.685974,193.330902 
	C627.630005,213.848724 644.389832,234.518555 661.292908,255.070328 
	C678.303345,275.752655 695.377991,296.382324 712.459656,317.005920 
	C731.451050,339.935059 750.472229,362.839600 769.498718,385.739624 
	C791.396912,412.096069 813.331055,438.422638 835.220154,464.786621 
	C855.833252,489.613861 876.398804,514.480591 897.002930,539.315308 
	C912.083313,557.492188 927.180786,575.654907 942.294922,593.803772 
	C947.464539,600.011414 947.437927,604.020264 942.371094,610.143738 
	C917.452942,640.257996 892.614990,670.438599 867.679321,700.538330 
	C847.517639,724.875305 827.255615,749.129028 807.042053,773.423035 
	C800.448303,781.347839 793.867249,789.283142 786.847168,797.777100 
	C788.097412,798.893188 789.780334,799.927673 791.464355,799.929443 
	C867.477661,800.009399 943.491089,799.997253 1019.504456,800.005493 
	C1021.663635,800.005737 1023.822876,800.107849 1026.093750,800.321045 
	C1026.362915,800.687500 1026.546387,800.869080 1026.755859,801.024475 
	C1026.786011,843.368164 1026.816284,885.711914 1026.653931,928.645508 
	C1026.280029,929.418579 1026.120605,929.619202 1025.983032,929.837280 
M638.483826,930.302185 
	C614.435791,930.209106 590.387817,930.110535 566.339783,930.065796 
	C565.894531,930.064941 565.448120,930.703796 565.184570,931.690857 
	C577.378723,946.429016 589.572815,961.167236 601.989685,976.174622 
	C605.282532,972.264832 607.889282,969.256592 610.401489,966.171387 
	C619.929565,954.470398 629.427002,942.744507 638.483826,930.302185 
M257.836090,833.524109 
	C257.649536,833.166931 257.370148,833.065552 256.066284,833.113220 
	C242.161713,833.113220 228.257141,833.113220 214.369247,833.113220 
	C214.369247,855.168091 214.369247,876.393311 214.369247,897.568481 
	C220.422134,897.568481 226.124481,897.568481 232.239410,897.568481 
	C232.239410,889.547180 232.239410,881.954834 232.239410,873.774475 
	C239.377380,873.774475 246.100342,873.774475 252.706558,873.774475 
	C252.706558,868.898499 252.706558,864.633057 252.706558,859.751709 
	C245.705780,859.751709 238.979752,859.751709 232.296600,859.751709 
	C232.296600,855.857300 232.296600,852.594482 232.296600,848.647705 
	C240.962250,848.647705 249.356247,848.647705 257.837219,848.647705 
	C257.837219,843.306641 257.837219,838.660461 257.836090,833.524109 
M384.516663,833.174011 
	C384.384949,833.450378 384.253235,833.726685 383.970367,834.929260 
	C384.012848,855.616577 384.055359,876.303833 384.103058,897.507629 
	C384.402771,897.611816 384.702454,897.716003 385.934326,897.921753 
	C400.479370,897.921753 415.024445,897.921753 429.485901,897.921753 
	C429.485901,892.107422 429.485901,887.208374 429.485901,881.843201 
	C419.849426,881.843201 410.603577,881.843201 401.406677,881.843201 
	C401.406677,878.644287 401.406677,875.941162 401.406677,872.995972 
	C407.619141,872.995972 413.453186,873.292725 419.227051,872.832947 
	C421.213928,872.674683 424.339905,870.926453 424.695709,869.385193 
	C425.515472,865.834595 424.955780,861.965576 424.955780,857.996460 
	C417.883820,857.996460 411.570129,857.879211 405.263855,858.044495 
	C401.963684,858.130920 400.673157,856.795837 400.993896,853.611450 
	C401.138428,852.176392 401.182495,850.731262 401.316071,848.584778 
	C410.632233,848.584778 419.659302,848.584778 428.636200,848.584778 
	C428.636200,843.098572 428.636200,838.351624 428.636200,833.220459 
	C413.873932,833.220459 399.444336,833.220459 384.516663,833.174011 
M311.017487,896.070679 
	C311.031281,891.417114 310.985657,886.762329 311.077179,882.110291 
	C311.153290,878.242615 313.517883,876.694519 316.887268,878.639221 
	C318.620819,879.639587 319.990601,881.534851 321.102417,883.292847 
	C323.403931,886.932068 325.248535,890.866699 327.641388,894.438538 
	C328.642395,895.932739 330.494904,897.694702 332.073608,897.812134 
	C337.602173,898.223633 343.180054,897.971741 349.674927,897.971741 
	C345.791992,891.066895 342.615204,884.913513 338.938599,879.074890 
	C336.836853,875.737122 336.875092,873.623901 339.690735,870.539612 
	C346.302521,863.296997 346.689850,854.704163 343.038269,845.945190 
	C339.545166,837.566223 332.678497,833.455750 323.918823,833.107605 
	C314.299194,832.725342 304.649109,833.109619 294.520599,833.159851 
	C294.162506,833.345886 294.059326,833.625854 294.104034,834.931641 
	C294.104034,855.750549 294.104034,876.569458 294.104034,897.823853 
	C299.808929,897.823853 304.898438,897.823853 310.501495,897.859314 
	C310.630951,897.572449 310.760406,897.285645 311.017487,896.070679 
M692.491211,337.019562 
	C662.519409,300.791901 632.547607,264.564240 602.142883,227.813324 
	C599.908264,230.336075 598.341980,232.005295 596.884888,233.764893 
	C584.576721,248.628448 572.304993,263.522156 559.990784,278.380676 
	C537.805908,305.149323 515.569275,331.875000 493.411682,358.666168 
	C477.297485,378.150177 461.330963,397.756409 445.198425,417.225067 
	C426.515991,439.770966 407.703522,462.209076 388.984436,484.724701 
	C366.542267,511.718567 344.139771,538.745422 321.718750,565.756897 
	C313.112091,576.125793 304.587280,586.564514 295.847168,596.819702 
	C292.734467,600.471924 292.163544,603.365112 295.979919,606.995789 
	C299.335236,610.187805 302.059631,614.046936 305.032349,617.636597 
	C327.842590,645.181152 350.658264,672.721252 373.447266,700.283386 
	C399.736633,732.079102 425.930847,763.954224 452.417480,795.584534 
	C454.376434,797.923950 458.275635,799.531311 461.418732,799.805420 
	C468.530487,800.425537 475.733521,799.998352 482.899414,799.998352 
	C569.059937,799.998108 655.220642,800.038696 741.380676,799.841431 
	C744.641907,799.833923 749.005859,798.466675 750.983765,796.140869 
	C769.414429,774.469482 787.425354,752.441345 805.576538,730.531982 
	C824.258362,707.982178 842.992981,685.476013 861.644775,662.901306 
	C877.434875,643.790161 893.118408,624.591064 908.908936,605.480225 
	C910.874390,603.101562 911.300903,601.221375 909.109131,598.602966 
	C892.448975,578.699707 875.888550,558.712769 859.337646,538.718262 
	C840.982605,516.544189 822.686768,494.321167 804.335632,472.143890 
	C782.804626,446.123627 761.232605,420.137299 739.695984,394.121674 
	C724.099731,375.281921 708.532227,356.418365 692.491211,337.019562 
M722.728027,350.759613 
	C682.561707,302.063385 642.395325,253.367157 602.018066,204.415283 
	C491.937775,337.333191 382.366028,469.636993 272.819092,601.910889 
	C273.498718,602.839661 273.860504,603.394409 274.281128,603.900208 
	C297.578369,631.912537 320.938354,659.872864 344.167755,687.941223 
	C373.653412,723.569092 403.030212,759.286926 432.463440,794.958191 
	C435.737976,798.926697 439.659973,801.187927 445.676331,799.352600 
	C444.615112,797.757324 443.854889,796.348083 442.848938,795.144043 
	C434.313599,784.927734 425.681946,774.791626 417.177216,764.550049 
	C397.087036,740.357056 377.044067,716.124817 356.994537,691.898071 
	C333.869446,663.954956 310.782715,635.980042 287.618134,608.069763 
	C283.267670,602.828064 283.167969,601.199036 287.431641,596.113892 
	C301.971405,578.772949 316.523712,561.441895 330.957336,544.012695 
	C348.784790,522.485229 366.475891,500.844788 384.266724,479.286865 
	C405.764893,453.236481 427.285767,427.204773 448.834473,401.196198 
	C467.519226,378.644318 486.219208,356.104828 504.980927,333.616974 
	C524.487366,310.236542 544.128113,286.967987 563.608948,263.566315 
	C575.104126,249.757507 586.382080,235.768082 597.802734,221.896973 
	C601.250061,217.710052 602.620056,217.791718 605.928894,221.793427 
	C621.406677,240.512451 636.890259,259.226929 652.413452,277.908356 
	C685.690979,317.956238 719.050598,357.935974 752.269836,398.032043 
	C781.880859,433.772827 811.331665,469.646271 840.884033,505.435699 
	C866.410645,536.349731 891.952271,567.251465 917.573669,598.086792 
	C920.244324,601.300903 919.881470,604.002380 917.452209,606.899292 
	C915.100708,609.703674 912.707703,612.473572 910.372253,615.291199 
	C886.696655,643.855408 863.070923,672.461182 839.347473,700.985474 
	C815.304016,729.894592 791.145935,758.708313 767.093750,787.610107 
	C763.894714,791.454102 761.023560,795.570862 758.000549,799.561279 
	C758.335144,799.976929 758.669739,800.392517 759.004333,800.808167 
	C763.225830,800.304504 767.343262,799.703613 770.475708,795.926636 
	C795.544189,765.699951 820.658325,735.510986 845.747620,705.301514 
	C862.756226,684.821838 879.770752,664.346863 896.737854,643.832764 
	C907.236206,631.139648 917.610779,618.344116 928.133057,605.671082 
	C930.508667,602.809875 930.281067,600.754761 927.764465,597.953003 
	C921.988892,591.522827 916.607910,584.736755 911.099976,578.067749 
	C889.696960,552.153076 868.339783,526.200439 846.903015,500.313751 
	C824.830261,473.659027 802.686035,447.063599 780.570984,420.443939 
	C761.430969,397.405396 742.288025,374.369232 722.728027,350.759613 
M755.190002,897.919678 
	C757.988403,898.246216 759.026367,897.033936 758.959290,894.208923 
	C758.812988,888.045898 758.916199,881.876892 758.917175,875.710327 
	C758.917603,873.058105 758.917236,870.405884 758.917236,867.753662 
	C762.318481,872.351929 764.562866,876.973694 766.530945,881.710205 
	C768.000427,885.246826 769.362366,888.159058 774.164185,888.133118 
	C778.906677,888.107422 780.369324,885.230286 781.911682,881.741089 
	C783.979858,877.062378 786.281921,872.487122 788.483521,867.867432 
	C788.941528,868.012695 789.399597,868.157959 789.857605,868.303162 
	C789.857605,878.057434 789.857605,887.811707 789.857605,897.703003 
	C795.820557,897.703003 801.246399,897.703003 806.918884,897.703003 
	C806.918884,876.072021 806.918884,854.720337 806.918884,832.987427 
	C802.866272,832.987427 799.174316,833.372192 795.595276,832.900452 
	C789.698425,832.123413 786.822754,834.834106 784.745178,840.020142 
	C781.745361,847.508240 778.109131,854.741333 774.338684,862.968689 
	C773.174255,860.668823 772.408936,859.258667 771.733948,857.806580 
	C768.582153,851.026611 765.578430,844.173401 762.235901,837.489380 
	C761.364197,835.746277 759.568787,833.397461 758.018616,833.253357 
	C752.480164,832.738464 746.864746,833.051819 741.429321,833.051819 
	C741.429321,855.049988 741.429321,876.286011 741.429321,897.922729 
	C745.971436,897.922729 750.112854,897.922729 755.190002,897.919678 
M605.974121,858.946777 
	C605.676575,857.840088 605.291748,856.748596 605.094910,855.624268 
	C603.053528,843.962341 596.016235,836.963501 584.140198,834.949341 
	C580.103149,834.264709 576.046997,833.409607 571.976929,833.263855 
	C564.412720,832.993042 556.831970,833.186218 549.335693,833.186218 
	C549.335693,855.057800 549.335693,876.296509 549.335693,898.000000 
	C558.762207,898.000000 567.882812,898.060181 577.002258,897.986877 
	C593.372314,897.855286 605.973999,885.162720 606.007812,868.857910 
	C606.014038,865.860901 606.000671,862.863953 605.974121,858.946777 
M895.575378,892.114075 
	C907.126892,884.085693 911.244751,872.636292 908.565796,859.420288 
	C905.752563,845.541870 896.696228,836.877319 882.530640,833.928772 
	C869.002441,831.112793 856.267029,836.298340 848.890564,847.796509 
	C840.688538,860.581665 840.915039,872.663147 849.577026,884.397217 
	C861.397949,900.410645 877.165405,903.244934 895.575378,892.114075 
M690.960266,892.515747 
	C699.512939,886.240295 704.390991,877.819214 704.928467,867.232483 
	C705.852966,849.022095 690.650696,829.747620 666.595093,833.917236 
	C651.196167,836.586304 639.476807,848.954407 639.004211,863.478638 
	C638.562744,877.044006 644.600525,887.165405 655.874268,894.206299 
	C667.558899,901.503906 679.120117,900.164246 690.960266,892.515747 
M942.868591,886.402771 
	C942.130981,888.007385 941.393311,889.612061 940.474487,891.610840 
	C946.948425,893.820190 952.833435,896.062805 958.857849,897.830017 
	C968.078369,900.534668 976.939331,899.155518 985.193665,894.361572 
	C992.603027,890.058228 993.653870,882.974976 993.046936,875.279236 
	C992.519836,868.595825 988.907043,864.208923 982.832825,861.790527 
	C978.522766,860.074524 973.913330,858.985474 969.836304,856.853821 
	C967.223755,855.487732 965.336670,852.734131 963.124329,850.602539 
	C966.216003,850.353943 969.438110,849.441101 972.368042,850.016235 
	C976.493286,850.825989 980.401855,852.738953 984.686768,854.282349 
	C987.221863,849.223816 989.548950,844.580383 992.032288,839.625061 
	C988.120178,838.140686 984.918945,836.786804 981.628418,835.704346 
	C972.625916,832.742676 963.522766,831.178345 954.666931,835.974731 
	C947.011719,840.120789 942.866028,846.875244 943.135986,855.515198 
	C943.389160,863.619202 948.834045,868.265686 956.002991,871.010010 
	C960.339905,872.670105 964.811401,873.991760 969.094604,875.772644 
	C970.830017,876.494202 972.225647,878.032715 974.783447,879.957825 
	C963.952515,884.651001 956.311340,878.174805 947.957886,876.136047 
	C946.259705,879.490051 944.689758,882.590881 942.868591,886.402771 
M489.676147,873.005005 
	C494.507782,873.003418 499.353607,873.203796 504.161621,872.866333 
	C505.456177,872.775513 507.575165,871.156128 507.698944,870.056458 
	C508.135040,866.181641 507.868530,862.227783 507.868530,857.857849 
	C499.852295,857.857849 492.588074,857.857849 485.230499,857.857849 
	C485.230499,854.669800 485.230499,851.950867 485.230499,848.791626 
	C493.051910,848.791626 500.522888,848.914062 507.982544,848.677551 
	C509.310089,848.635437 511.620453,847.203979 511.714600,846.241577 
	C512.127441,842.021851 511.892517,837.738708 511.892517,833.367676 
	C496.568909,833.367676 482.002319,833.367676 467.266296,833.367676 
	C467.266296,854.929565 467.266296,876.168518 467.266296,897.508179 
	C482.227203,897.508179 496.912048,897.508179 511.511902,897.508179 
	C511.511902,892.152283 511.511902,887.253052 511.511902,881.873901 
	C502.510681,881.873901 493.917175,881.873901 483.560425,881.873901 
	C487.088898,878.836609 481.039185,873.151184 489.676147,873.005005 
M634.920593,947.401672 
	C624.094849,960.334351 613.269165,973.267090 602.183472,986.510376 
	C600.301575,984.507751 599.109802,983.371216 598.067871,982.110718 
	C584.834412,966.101990 571.633057,950.066650 558.397522,934.059692 
	C555.122864,930.099243 551.100403,928.892456 545.881958,930.847839 
	C546.593628,932.028687 546.999390,932.941406 547.612732,933.682495 
	C553.969116,941.364014 560.374695,949.004883 566.736084,956.682251 
	C577.231262,969.348694 587.672974,982.059509 598.202942,994.696899 
	C601.902405,999.136780 602.372375,999.098022 605.955505,994.788269 
	C619.447449,978.560730 632.938660,962.332458 646.373291,946.057495 
	C650.523804,941.029419 654.493591,935.852234 658.664734,930.593872 
	C652.792114,928.852783 648.882568,930.633911 645.642456,934.659485 
	C642.310974,938.798645 638.789551,942.784973 634.920593,947.401672 
z"/>
<path fill="#0E0B22" opacity="1.000000" stroke="none" 
	d="
M1025.982056,800.162354 
	C1023.822876,800.107849 1021.663635,800.005737 1019.504456,800.005493 
	C943.491089,799.997253 867.477661,800.009399 791.464355,799.929443 
	C789.780334,799.927673 788.097412,798.893188 786.720703,798.076660 
	C789.780823,798.208496 792.533875,798.947327 795.287659,798.949646 
	C869.616821,799.012512 943.945984,798.992920 1018.275208,799.028748 
	C1020.910828,799.030029 1023.546265,799.454712 1026.311523,799.865845 
	C1026.441162,800.049622 1025.982056,800.162354 1025.982056,800.162354 
z"/>
<path fill="#5142CA" opacity="1.000000" stroke="none" 
	d="
M177.783829,800.203491 
	C177.871002,800.392761 177.712646,800.584839 177.387695,800.877319 
	C177.143295,800.654236 177.249023,800.397095 177.783829,800.203491 
z"/>
<path fill="#4D3FC2" opacity="1.000000" stroke="none" 
	d="
M1026.093750,800.321045 
	C1025.982056,800.162354 1026.441162,800.049622 1026.676392,800.047607 
	C1026.909424,800.212463 1026.907104,800.379333 1026.830322,800.785339 
	C1026.546387,800.869080 1026.362915,800.687500 1026.093750,800.321045 
z"/>
<path fill="#5142CA" opacity="1.000000" stroke="none" 
	d="
M177.218689,929.225464 
	C177.423080,929.151367 177.605194,929.329773 177.882462,929.681580 
	C177.640442,929.909180 177.380051,929.783508 177.218689,929.225464 
z"/>
<path fill="#4D3FC2" opacity="1.000000" stroke="none" 
	d="
M1026.213135,929.812256 
	C1026.120605,929.619202 1026.280029,929.418579 1026.608765,929.111328 
	C1026.866211,929.337830 1026.761963,929.604492 1026.213135,929.812256 
z"/>
<path fill="#2F2D2E" opacity="1.000000" stroke="none" 
	d="
M692.721558,337.292480 
	C708.532227,356.418365 724.099731,375.281921 739.695984,394.121674 
	C761.232605,420.137299 782.804626,446.123627 804.335632,472.143890 
	C822.686768,494.321167 840.982605,516.544189 859.337646,538.718262 
	C875.888550,558.712769 892.448975,578.699707 909.109131,598.602966 
	C911.300903,601.221375 910.874390,603.101562 908.908936,605.480225 
	C893.118408,624.591064 877.434875,643.790161 861.644775,662.901306 
	C842.992981,685.476013 824.258362,707.982178 805.576538,730.531982 
	C787.425354,752.441345 769.414429,774.469482 750.983765,796.140869 
	C749.005859,798.466675 744.641907,799.833923 741.380676,799.841431 
	C655.220642,800.038696 569.059937,799.998108 482.899414,799.998352 
	C475.733521,799.998352 468.530487,800.425537 461.418732,799.805420 
	C458.275635,799.531311 454.376434,797.923950 452.417480,795.584534 
	C425.930847,763.954224 399.736633,732.079102 373.447266,700.283386 
	C350.658264,672.721252 327.842590,645.181152 305.032349,617.636597 
	C302.059631,614.046936 299.335236,610.187805 295.979919,606.995789 
	C292.163544,603.365112 292.734467,600.471924 295.847168,596.819702 
	C304.587280,586.564514 313.112091,576.125793 321.718750,565.756897 
	C344.139771,538.745422 366.542267,511.718567 388.984436,484.724701 
	C407.703522,462.209076 426.515991,439.770966 445.198425,417.225067 
	C461.330963,397.756409 477.297485,378.150177 493.411682,358.666168 
	C515.569275,331.875000 537.805908,305.149323 559.990784,278.380676 
	C572.304993,263.522156 584.576721,248.628448 596.884888,233.764893 
	C598.341980,232.005295 599.908264,230.336075 602.142883,227.813324 
	C632.547607,264.564240 662.519409,300.791901 692.721558,337.292480 
M592.000000,559.490845 
	C592.000000,549.078430 592.000000,538.666016 592.000000,528.000000 
	C594.866516,528.000000 596.856628,528.000061 598.846802,528.000000 
	C635.339600,527.998840 671.832336,528.004578 708.325134,527.989807 
	C714.330078,527.987366 714.928040,527.391418 714.939026,521.391968 
	C714.976440,501.062805 714.887817,480.732727 715.067932,460.404968 
	C715.109924,455.669464 713.446533,453.928894 708.662354,453.936279 
	C644.508545,454.035187 580.354492,453.987915 516.200562,454.055969 
	C513.504639,454.058838 510.809540,454.831757 508.168396,455.237579 
	C508.091888,456.939056 508.008240,457.931152 508.008179,458.923248 
	C508.002533,555.904114 508.029816,652.884949 507.926819,749.865723 
	C507.921539,754.857178 509.958313,756.091736 514.521118,756.063660 
	C538.015564,755.919006 561.511414,756.002441 585.006775,755.992615 
	C591.741150,755.989807 591.984253,755.754639 591.987549,748.817017 
	C592.002991,716.323425 591.997803,683.829834 592.000000,651.336243 
	C592.000122,649.389221 592.000000,647.442261 592.000000,644.998047 
	C594.393494,644.998047 596.180847,644.998108 597.968140,644.998108 
	C627.129028,644.998108 656.289978,645.010925 685.450867,644.987000 
	C691.091125,644.982361 692.934998,643.551270 692.956177,638.732910 
	C693.041199,619.403809 692.967407,600.074036 693.012939,580.744629 
	C693.020935,577.345642 691.485474,575.935242 688.145386,575.982117 
	C682.147827,576.066406 676.148132,576.000549 670.149353,576.000305 
	C646.154114,575.999573 622.158630,575.955383 598.163757,576.043701 
	C594.170593,576.058411 591.704773,575.076721 591.964661,570.481323 
	C592.152588,567.159241 592.000488,563.818054 592.000000,559.490845 
z"/>
<path fill="#2D2B31" opacity="1.000000" stroke="none" 
	d="
M722.937256,351.045776 
	C742.288025,374.369232 761.430969,397.405396 780.570984,420.443939 
	C802.686035,447.063599 824.830261,473.659027 846.903015,500.313751 
	C868.339783,526.200439 889.696960,552.153076 911.099976,578.067749 
	C916.607910,584.736755 921.988892,591.522827 927.764465,597.953003 
	C930.281067,600.754761 930.508667,602.809875 928.133057,605.671082 
	C917.610779,618.344116 907.236206,631.139648 896.737854,643.832764 
	C879.770752,664.346863 862.756226,684.821838 845.747620,705.301514 
	C820.658325,735.510986 795.544189,765.699951 770.475708,795.926636 
	C767.343262,799.703613 763.225830,800.304504 759.004333,800.808167 
	C758.669739,800.392517 758.335144,799.976929 758.000549,799.561279 
	C761.023560,795.570862 763.894714,791.454102 767.093750,787.610107 
	C791.145935,758.708313 815.304016,729.894592 839.347473,700.985474 
	C863.070923,672.461182 886.696655,643.855408 910.372253,615.291199 
	C912.707703,612.473572 915.100708,609.703674 917.452209,606.899292 
	C919.881470,604.002380 920.244324,601.300903 917.573669,598.086792 
	C891.952271,567.251465 866.410645,536.349731 840.884033,505.435699 
	C811.331665,469.646271 781.880859,433.772827 752.269836,398.032043 
	C719.050598,357.935974 685.690979,317.956238 652.413452,277.908356 
	C636.890259,259.226929 621.406677,240.512451 605.928894,221.793427 
	C602.620056,217.791718 601.250061,217.710052 597.802734,221.896973 
	C586.382080,235.768082 575.104126,249.757507 563.608948,263.566315 
	C544.128113,286.967987 524.487366,310.236542 504.980927,333.616974 
	C486.219208,356.104828 467.519226,378.644318 448.834473,401.196198 
	C427.285767,427.204773 405.764893,453.236481 384.266724,479.286865 
	C366.475891,500.844788 348.784790,522.485229 330.957336,544.012695 
	C316.523712,561.441895 301.971405,578.772949 287.431641,596.113892 
	C283.167969,601.199036 283.267670,602.828064 287.618134,608.069763 
	C310.782715,635.980042 333.869446,663.954956 356.994537,691.898071 
	C377.044067,716.124817 397.087036,740.357056 417.177216,764.550049 
	C425.681946,774.791626 434.313599,784.927734 442.848938,795.144043 
	C443.854889,796.348083 444.615112,797.757324 445.676331,799.352600 
	C439.659973,801.187927 435.737976,798.926697 432.463440,794.958191 
	C403.030212,759.286926 373.653412,723.569092 344.167755,687.941223 
	C320.938354,659.872864 297.578369,631.912537 274.281128,603.900208 
	C273.860504,603.394409 273.498718,602.839661 272.819092,601.910889 
	C382.366028,469.636993 491.937775,337.333191 602.018066,204.415283 
	C642.395325,253.367157 682.561707,302.063385 722.937256,351.045776 
z"/>
<path fill="#EDEDEF" opacity="1.000000" stroke="none" 
	d="
M754.722168,897.921204 
	C750.112854,897.922729 745.971436,897.922729 741.429321,897.922729 
	C741.429321,876.286011 741.429321,855.049988 741.429321,833.051819 
	C746.864746,833.051819 752.480164,832.738464 758.018616,833.253357 
	C759.568787,833.397461 761.364197,835.746277 762.235901,837.489380 
	C765.578430,844.173401 768.582153,851.026611 771.733948,857.806580 
	C772.408936,859.258667 773.174255,860.668823 774.338684,862.968689 
	C778.109131,854.741333 781.745361,847.508240 784.745178,840.020142 
	C786.822754,834.834106 789.698425,832.123413 795.595276,832.900452 
	C799.174316,833.372192 802.866272,832.987427 806.918884,832.987427 
	C806.918884,854.720337 806.918884,876.072021 806.918884,897.703003 
	C801.246399,897.703003 795.820557,897.703003 789.857605,897.703003 
	C789.857605,887.811707 789.857605,878.057434 789.857605,868.303162 
	C789.399597,868.157959 788.941528,868.012695 788.483521,867.867432 
	C786.281921,872.487122 783.979858,877.062378 781.911682,881.741089 
	C780.369324,885.230286 778.906677,888.107422 774.164185,888.133118 
	C769.362366,888.159058 768.000427,885.246826 766.530945,881.710205 
	C764.562866,876.973694 762.318481,872.351929 758.917236,867.753662 
	C758.917236,870.405884 758.917603,873.058105 758.917175,875.710327 
	C758.916199,881.876892 758.812988,888.045898 758.959290,894.208923 
	C759.026367,897.033936 757.988403,898.246216 754.722168,897.921204 
M789.535767,866.076904 
	C789.445557,866.311462 789.355347,866.546082 789.265259,866.780762 
	C789.427673,866.643860 789.590088,866.507019 789.535767,866.076904 
z"/>
<path fill="#EDEDEF" opacity="1.000000" stroke="none" 
	d="
M605.985229,859.406860 
	C606.000671,862.863953 606.014038,865.860901 606.007812,868.857910 
	C605.973999,885.162720 593.372314,897.855286 577.002258,897.986877 
	C567.882812,898.060181 558.762207,898.000000 549.335693,898.000000 
	C549.335693,876.296509 549.335693,855.057800 549.335693,833.186218 
	C556.831970,833.186218 564.412720,832.993042 571.976929,833.263855 
	C576.046997,833.409607 580.103149,834.264709 584.140198,834.949341 
	C596.016235,836.963501 603.053528,843.962341 605.094910,855.624268 
	C605.291748,856.748596 605.676575,857.840088 605.985229,859.406860 
M567.270020,849.907104 
	C567.216125,859.720215 567.098022,869.533875 567.192749,879.345581 
	C567.204102,880.520874 568.110657,882.397461 569.045532,882.740356 
	C575.857788,885.238831 586.218689,879.746216 587.609741,872.403870 
	C588.813416,866.050293 588.963623,859.403015 584.608582,853.794800 
	C583.539062,852.417542 582.069519,850.732971 580.546265,850.444519 
	C576.357910,849.651245 572.043335,849.523987 567.270020,849.907104 
z"/>
<path fill="#EDEDEF" opacity="1.000000" stroke="none" 
	d="
M295.012299,833.159973 
	C304.649109,833.109619 314.299194,832.725342 323.918823,833.107605 
	C332.678497,833.455750 339.545166,837.566223 343.038269,845.945190 
	C346.689850,854.704163 346.302521,863.296997 339.690735,870.539612 
	C336.875092,873.623901 336.836853,875.737122 338.938599,879.074890 
	C342.615204,884.913513 345.791992,891.066895 349.674927,897.971741 
	C343.180054,897.971741 337.602173,898.223633 332.073608,897.812134 
	C330.494904,897.694702 328.642395,895.932739 327.641388,894.438538 
	C325.248535,890.866699 323.403931,886.932068 321.102417,883.292847 
	C319.990601,881.534851 318.620819,879.639587 316.887268,878.639221 
	C313.517883,876.694519 311.153290,878.242615 311.077179,882.110291 
	C310.985657,886.762329 311.031281,891.417114 310.791016,896.658325 
	C310.356232,897.422485 310.164032,897.615112 309.987915,897.823853 
	C304.898438,897.823853 299.808929,897.823853 294.104034,897.823853 
	C294.104034,876.569458 294.104034,855.750549 294.306580,834.341064 
	C294.697235,833.571106 294.864960,833.374268 295.012299,833.159973 
M321.806549,862.895264 
	C326.567230,861.760620 327.846924,858.205750 326.845032,854.152832 
	C326.368622,852.225647 324.174438,849.722412 322.363647,849.337585 
	C318.791656,848.578430 314.944550,849.113770 311.176941,849.113770 
	C311.093750,850.798645 310.994415,851.787781 311.003845,852.775818 
	C311.111969,864.130798 309.583618,863.002502 321.806549,862.895264 
z"/>
<path fill="#ECEBEF" opacity="1.000000" stroke="none" 
	d="
M895.291199,892.338745 
	C877.165405,903.244934 861.397949,900.410645 849.577026,884.397217 
	C840.915039,872.663147 840.688538,860.581665 848.890564,847.796509 
	C856.267029,836.298340 869.002441,831.112793 882.530640,833.928772 
	C896.696228,836.877319 905.752563,845.541870 908.565796,859.420288 
	C911.244751,872.636292 907.126892,884.085693 895.291199,892.338745 
M890.156128,872.245667 
	C890.438354,870.125244 890.937683,868.007568 890.964966,865.883850 
	C891.078796,857.052429 886.640564,850.447693 879.850220,849.091248 
	C871.484558,847.420227 865.567627,851.221191 862.044067,860.529785 
	C859.028809,868.495544 863.407349,878.536682 871.424011,882.040344 
	C878.117188,884.965576 885.888062,881.191345 890.156128,872.245667 
z"/>
<path fill="#ECEBEF" opacity="1.000000" stroke="none" 
	d="
M690.665894,892.729980 
	C679.120117,900.164246 667.558899,901.503906 655.874268,894.206299 
	C644.600525,887.165405 638.562744,877.044006 639.004211,863.478638 
	C639.476807,848.954407 651.196167,836.586304 666.595093,833.917236 
	C690.650696,829.747620 705.852966,849.022095 704.928467,867.232483 
	C704.390991,877.819214 699.512939,886.240295 690.665894,892.729980 
M665.562256,881.169922 
	C669.056885,881.526855 672.818848,882.890686 675.994873,882.047546 
	C684.746277,879.724060 689.104248,869.862488 686.370239,860.234314 
	C684.486938,853.601990 679.572937,849.380493 673.307800,849.012817 
	C666.006958,848.584290 661.565247,851.418213 658.576538,858.411865 
	C655.033752,866.701843 657.383911,875.083130 665.562256,881.169922 
z"/>
<path fill="#ECEBEF" opacity="1.000000" stroke="none" 
	d="
M942.994141,886.047241 
	C944.689758,882.590881 946.259705,879.490051 947.957886,876.136047 
	C956.311340,878.174805 963.952515,884.651001 974.783447,879.957825 
	C972.225647,878.032715 970.830017,876.494202 969.094604,875.772644 
	C964.811401,873.991760 960.339905,872.670105 956.002991,871.010010 
	C948.834045,868.265686 943.389160,863.619202 943.135986,855.515198 
	C942.866028,846.875244 947.011719,840.120789 954.666931,835.974731 
	C963.522766,831.178345 972.625916,832.742676 981.628418,835.704346 
	C984.918945,836.786804 988.120178,838.140686 992.032288,839.625061 
	C989.548950,844.580383 987.221863,849.223816 984.686768,854.282349 
	C980.401855,852.738953 976.493286,850.825989 972.368042,850.016235 
	C969.438110,849.441101 966.216003,850.353943 963.124329,850.602539 
	C965.336670,852.734131 967.223755,855.487732 969.836304,856.853821 
	C973.913330,858.985474 978.522766,860.074524 982.832825,861.790527 
	C988.907043,864.208923 992.519836,868.595825 993.046936,875.279236 
	C993.653870,882.974976 992.603027,890.058228 985.193665,894.361572 
	C976.939331,899.155518 968.078369,900.534668 958.857849,897.830017 
	C952.833435,896.062805 946.948425,893.820190 940.474487,891.610840 
	C941.393311,889.612061 942.130981,888.007385 942.994141,886.047241 
z"/>
<path fill="#EEEEEF" opacity="1.000000" stroke="none" 
	d="
M489.198486,873.005615 
	C481.039185,873.151184 487.088898,878.836609 483.560425,881.873901 
	C493.917175,881.873901 502.510681,881.873901 511.511902,881.873901 
	C511.511902,887.253052 511.511902,892.152283 511.511902,897.508179 
	C496.912048,897.508179 482.227203,897.508179 467.266296,897.508179 
	C467.266296,876.168518 467.266296,854.929565 467.266296,833.367676 
	C482.002319,833.367676 496.568909,833.367676 511.892517,833.367676 
	C511.892517,837.738708 512.127441,842.021851 511.714600,846.241577 
	C511.620453,847.203979 509.310089,848.635437 507.982544,848.677551 
	C500.522888,848.914062 493.051910,848.791626 485.230499,848.791626 
	C485.230499,851.950867 485.230499,854.669800 485.230499,857.857849 
	C492.588074,857.857849 499.852295,857.857849 507.868530,857.857849 
	C507.868530,862.227783 508.135040,866.181641 507.698944,870.056458 
	C507.575165,871.156128 505.456177,872.775513 504.161621,872.866333 
	C499.353607,873.203796 494.507782,873.003418 489.198486,873.005615 
z"/>
<path fill="#EFEFEF" opacity="1.000000" stroke="none" 
	d="
M384.097839,896.991150 
	C384.055359,876.303833 384.012848,855.616577 384.210815,834.354736 
	C384.662994,833.617676 384.850830,833.431091 385.014771,833.220459 
	C399.444336,833.220459 413.873932,833.220459 428.636200,833.220459 
	C428.636200,838.351624 428.636200,843.098572 428.636200,848.584778 
	C419.659302,848.584778 410.632233,848.584778 401.316071,848.584778 
	C401.182495,850.731262 401.138428,852.176392 400.993896,853.611450 
	C400.673157,856.795837 401.963684,858.130920 405.263855,858.044495 
	C411.570129,857.879211 417.883820,857.996460 424.955780,857.996460 
	C424.955780,861.965576 425.515472,865.834595 424.695709,869.385193 
	C424.339905,870.926453 421.213928,872.674683 419.227051,872.832947 
	C413.453186,873.292725 407.619141,872.995972 401.406677,872.995972 
	C401.406677,875.941162 401.406677,878.644287 401.406677,881.843201 
	C410.603577,881.843201 419.849426,881.843201 429.485901,881.843201 
	C429.485901,887.208374 429.485901,892.107422 429.485901,897.921753 
	C415.024445,897.921753 400.479370,897.921753 385.330414,897.718994 
	C384.535706,897.318787 384.326141,897.143738 384.097839,896.991150 
z"/>
<path fill="#EFEFEF" opacity="1.000000" stroke="none" 
	d="
M257.837219,834.014343 
	C257.837219,838.660461 257.837219,843.306641 257.837219,848.647705 
	C249.356247,848.647705 240.962250,848.647705 232.296600,848.647705 
	C232.296600,852.594482 232.296600,855.857300 232.296600,859.751709 
	C238.979752,859.751709 245.705780,859.751709 252.706558,859.751709 
	C252.706558,864.633057 252.706558,868.898499 252.706558,873.774475 
	C246.100342,873.774475 239.377380,873.774475 232.239410,873.774475 
	C232.239410,881.954834 232.239410,889.547180 232.239410,897.568481 
	C226.124481,897.568481 220.422134,897.568481 214.369247,897.568481 
	C214.369247,876.393311 214.369247,855.168091 214.369247,833.113220 
	C228.257141,833.113220 242.161713,833.113220 256.655457,833.315674 
	C257.424377,833.704712 257.621887,833.870117 257.837219,834.014343 
z"/>
<path fill="#2F2D2F" opacity="1.000000" stroke="none" 
	d="
M638.935852,931.027893 
	C629.427002,942.744507 619.929565,954.470398 610.401489,966.171387 
	C607.889282,969.256592 605.282532,972.264832 601.989685,976.174622 
	C589.572815,961.167236 577.378723,946.429016 565.561401,931.355835 
	C590.270752,931.023132 614.603271,931.025513 638.935852,931.027893 
z"/>
<path fill="#2D2B31" opacity="1.000000" stroke="none" 
	d="
M635.135864,947.119873 
	C638.789551,942.784973 642.310974,938.798645 645.642456,934.659485 
	C648.882568,930.633911 652.792114,928.852783 658.664734,930.593872 
	C654.493591,935.852234 650.523804,941.029419 646.373291,946.057495 
	C632.938660,962.332458 619.447449,978.560730 605.955505,994.788269 
	C602.372375,999.098022 601.902405,999.136780 598.202942,994.696899 
	C587.672974,982.059509 577.231262,969.348694 566.736084,956.682251 
	C560.374695,949.004883 553.969116,941.364014 547.612732,933.682495 
	C546.999390,932.941406 546.593628,932.028687 545.881958,930.847839 
	C551.100403,928.892456 555.122864,930.099243 558.397522,934.059692 
	C571.633057,950.066650 584.834412,966.101990 598.067871,982.110718 
	C599.109802,983.371216 600.301575,984.507751 602.183472,986.510376 
	C613.269165,973.267090 624.094849,960.334351 635.135864,947.119873 
z"/>
<path fill="#1B1542" opacity="1.000000" stroke="none" 
	d="
M638.709839,930.665039 
	C614.603271,931.025513 590.270752,931.023132 565.470215,931.032471 
	C565.448120,930.703796 565.894531,930.064941 566.339783,930.065796 
	C590.387817,930.110535 614.435791,930.209106 638.709839,930.665039 
z"/>
<path fill="#DAD6ED" opacity="1.000000" stroke="none" 
	d="
M294.766449,833.159912 
	C294.864960,833.374268 294.697235,833.571106 294.360107,833.875122 
	C294.059326,833.625854 294.162506,833.345886 294.766449,833.159912 
z"/>
<path fill="#DAD6ED" opacity="1.000000" stroke="none" 
	d="
M310.244690,897.841553 
	C310.164032,897.615112 310.356232,897.422485 310.727173,897.122375 
	C310.760406,897.285645 310.630951,897.572449 310.244690,897.841553 
z"/>
<path fill="#DAD6ED" opacity="1.000000" stroke="none" 
	d="
M384.100464,897.249390 
	C384.326141,897.143738 384.535706,897.318787 384.864319,897.668213 
	C384.702454,897.716003 384.402771,897.611816 384.100464,897.249390 
z"/>
<path fill="#DAD6ED" opacity="1.000000" stroke="none" 
	d="
M257.836670,833.769226 
	C257.621887,833.870117 257.424377,833.704712 257.121307,833.368958 
	C257.370148,833.065552 257.649536,833.166931 257.836670,833.769226 
z"/>
<path fill="#DAD6ED" opacity="1.000000" stroke="none" 
	d="
M384.765717,833.197266 
	C384.850830,833.431091 384.662994,833.617676 384.286438,833.891602 
	C384.253235,833.726685 384.384949,833.450378 384.765717,833.197266 
z"/>
<path fill="#5A4AE3" opacity="1.000000" stroke="none" 
	d="
M592.000000,559.988098 
	C592.000488,563.818054 592.152588,567.159241 591.964661,570.481323 
	C591.704773,575.076721 594.170593,576.058411 598.163757,576.043701 
	C622.158630,575.955383 646.154114,575.999573 670.149353,576.000305 
	C676.148132,576.000549 682.147827,576.066406 688.145386,575.982117 
	C691.485474,575.935242 693.020935,577.345642 693.012939,580.744629 
	C692.967407,600.074036 693.041199,619.403809 692.956177,638.732910 
	C692.934998,643.551270 691.091125,644.982361 685.450867,644.987000 
	C656.289978,645.010925 627.129028,644.998108 597.968140,644.998108 
	C596.180847,644.998108 594.393494,644.998047 592.000000,644.998047 
	C592.000000,647.442261 592.000122,649.389221 592.000000,651.336243 
	C591.997803,683.829834 592.002991,716.323425 591.987549,748.817017 
	C591.984253,755.754639 591.741150,755.989807 585.006775,755.992615 
	C561.511414,756.002441 538.015564,755.919006 514.521118,756.063660 
	C509.958313,756.091736 507.921539,754.857178 507.926819,749.865723 
	C508.029816,652.884949 508.002533,555.904114 508.008179,458.923248 
	C508.008240,457.931152 508.091888,456.939056 508.168396,455.237579 
	C510.809540,454.831757 513.504639,454.058838 516.200562,454.055969 
	C580.354492,453.987915 644.508545,454.035187 708.662354,453.936279 
	C713.446533,453.928894 715.109924,455.669464 715.067932,460.404968 
	C714.887817,480.732727 714.976440,501.062805 714.939026,521.391968 
	C714.928040,527.391418 714.330078,527.987366 708.325134,527.989807 
	C671.832336,528.004578 635.339600,527.998840 598.846802,528.000000 
	C596.856628,528.000061 594.866516,528.000000 592.000000,528.000000 
	C592.000000,538.666016 592.000000,549.078430 592.000000,559.988098 
z"/>
<path fill="#7669E5" opacity="1.000000" stroke="none" 
	d="
M789.644165,866.223511 
	C789.590088,866.507019 789.427673,866.643860 789.265198,866.780762 
	C789.355347,866.546082 789.445557,866.311462 789.644165,866.223511 
z"/>
<path fill="#5D4DE3" opacity="1.000000" stroke="none" 
	d="
M567.524414,849.520142 
	C572.043335,849.523987 576.357910,849.651245 580.546265,850.444519 
	C582.069519,850.732971 583.539062,852.417542 584.608582,853.794800 
	C588.963623,859.403015 588.813416,866.050293 587.609741,872.403870 
	C586.218689,879.746216 575.857788,885.238831 569.045532,882.740356 
	C568.110657,882.397461 567.204102,880.520874 567.192749,879.345581 
	C567.098022,869.533875 567.216125,859.720215 567.524414,849.520142 
z"/>
<path fill="#5D4DE3" opacity="1.000000" stroke="none" 
	d="
M321.379333,862.935303 
	C309.583618,863.002502 311.111969,864.130798 311.003845,852.775818 
	C310.994415,851.787781 311.093750,850.798645 311.176941,849.113770 
	C314.944550,849.113770 318.791656,848.578430 322.363647,849.337585 
	C324.174438,849.722412 326.368622,852.225647 326.845032,854.152832 
	C327.846924,858.205750 326.567230,861.760620 321.379333,862.935303 
z"/>
<path fill="#5D4DE3" opacity="1.000000" stroke="none" 
	d="
M890.064453,872.638550 
	C885.888062,881.191345 878.117188,884.965576 871.424011,882.040344 
	C863.407349,878.536682 859.028809,868.495544 862.044067,860.529785 
	C865.567627,851.221191 871.484558,847.420227 879.850220,849.091248 
	C886.640564,850.447693 891.078796,857.052429 890.964966,865.883850 
	C890.937683,868.007568 890.438354,870.125244 890.064453,872.638550 
z"/>
<path fill="#5D4DE3" opacity="1.000000" stroke="none" 
	d="
M665.216003,881.012329 
	C657.383911,875.083130 655.033752,866.701843 658.576538,858.411865 
	C661.565247,851.418213 666.006958,848.584290 673.307800,849.012817 
	C679.572937,849.380493 684.486938,853.601990 686.370239,860.234314 
	C689.104248,869.862488 684.746277,879.724060 675.994873,882.047546 
	C672.818848,882.890686 669.056885,881.526855 665.216003,881.012329 
z"/>
</svg>