<svg version="1.1" id="Layer_1" xmlns="http://www.w3.org/2000/svg" xmlns:xlink="http://www.w3.org/1999/xlink" x="0px" y="0px"
	 width="100%" viewBox="0 0 1200 1200" enable-background="new 0 0 1200 1200" xml:space="preserve">
<path fill="#000000" opacity="1.000000" stroke="none" 
	d="
M662.000000,1201.000000 
	C441.333344,1201.000000 221.166672,1201.000000 1.000000,1201.000000 
	C1.000000,801.000000 1.000000,401.000000 1.000000,1.000000 
	C401.000000,1.000000 801.000000,1.000000 1201.000000,1.000000 
	C1201.000000,401.000000 1201.000000,801.000000 1201.000000,1201.000000 
	C1021.500000,1201.000000 842.000000,1201.000000 662.000000,1201.000000 
M935.976562,615.537720 
	C937.893982,613.282593 939.770630,610.991211 941.737183,608.779785 
	C946.006348,603.979065 946.445923,599.167603 942.538696,594.212341 
	C938.671570,589.308044 934.409546,584.717407 930.425476,579.902588 
	C923.200134,571.170471 916.092041,562.341248 908.862183,553.612976 
	C900.067017,542.994995 891.209045,532.428833 882.354736,521.859985 
	C874.964783,513.039185 867.489197,504.289673 860.145447,495.430817 
	C851.259216,484.711090 842.505188,473.881897 833.631042,463.152069 
	C826.521912,454.556213 819.280579,446.069641 812.167358,437.477081 
	C803.179810,426.620422 794.288391,415.684204 785.307129,404.822327 
	C778.284790,396.329651 771.156799,387.924347 764.133301,379.432587 
	C755.148499,368.569489 746.262939,357.624176 737.256531,346.779114 
	C730.012329,338.056000 722.589294,329.481262 715.359192,320.746643 
	C706.475769,310.014679 697.763733,299.140900 688.878967,288.410065 
	C680.085449,277.789459 671.112549,267.317352 662.322815,256.693634 
	C653.535767,246.073090 644.896484,235.330383 636.158752,224.668869 
	C627.000366,213.494186 617.679199,202.450287 608.666626,191.159698 
	C603.225037,184.342728 598.666443,184.320251 593.295044,191.222321 
	C587.553894,198.599548 581.519531,205.750702 575.542603,212.941956 
	C566.819885,223.436890 557.997192,233.848740 549.285706,244.352905 
	C540.161133,255.355087 531.143494,266.445801 522.030579,277.457733 
	C514.799683,286.195404 507.463562,294.845978 500.231720,303.582886 
	C489.768555,316.223541 479.394745,328.938202 468.912537,341.562958 
	C460.103302,352.172760 451.135498,362.651031 442.344757,373.275940 
	C433.557159,383.897095 424.988586,394.699951 416.165161,405.290802 
	C407.014130,416.274933 397.546600,426.996307 388.444122,438.019745 
	C375.087463,454.195099 362.029938,470.617584 348.664124,486.785248 
	C334.857269,503.486328 320.794891,519.975952 306.916321,536.618103 
	C292.307922,554.135437 277.710175,571.662781 263.257172,589.308105 
	C256.474182,597.589294 252.823471,600.410889 262.981842,611.551086 
	C266.744019,615.676941 270.199768,620.084229 273.754852,624.396484 
	C282.823090,635.396301 291.846069,646.433411 300.930450,657.419861 
	C307.846863,665.784424 314.862427,674.066956 321.774689,682.434875 
	C330.753754,693.304871 339.632294,704.257996 348.632935,715.109985 
	C355.978149,723.966003 363.492218,732.682068 370.835175,741.539978 
	C379.727051,752.266296 388.511383,763.081665 397.354034,773.848816 
	C404.076263,782.033997 410.816895,790.204102 418.114594,799.067505 
	C336.961121,799.067505 256.728455,799.067505 176.293274,799.067505 
	C176.293274,842.515808 176.293274,885.563477 176.293274,928.999817 
	C178.547913,928.999817 180.513931,928.999817 182.479950,928.999817 
	C295.297089,928.999817 408.114288,929.024780 520.931274,928.892517 
	C524.744873,928.888062 527.198181,930.231079 529.383362,932.907593 
	C535.295837,940.149414 541.166809,947.425842 547.139648,954.617737 
	C554.271118,963.204651 561.551270,971.668396 568.657532,980.275818 
	C577.429138,990.900330 585.923767,1001.757812 594.856506,1012.243225 
	C600.325195,1018.662537 601.974487,1018.369995 607.575867,1011.752686 
	C616.373230,1001.359741 624.762024,990.622070 633.414246,980.104797 
	C646.142334,964.633240 658.929504,949.210205 671.741150,933.807739 
	C674.317810,930.710083 677.112915,928.838440 681.809631,928.846680 
	C794.459839,929.043335 907.110352,928.999817 1019.760864,928.999817 
	C1021.705017,928.999817 1023.649109,928.999817 1025.666260,928.999817 
	C1025.666260,885.391785 1025.666260,842.343872 1025.666260,798.873169 
	C945.122925,798.873169 864.912292,798.873169 783.982361,798.873169 
	C785.894348,796.706421 787.327454,795.168884 788.665283,793.552612 
	C799.342163,780.654480 809.983459,767.726929 820.671387,754.838013 
	C827.684631,746.380432 834.783813,737.994202 841.796631,729.536255 
	C851.010620,718.423584 860.154114,707.252502 869.371948,696.143066 
	C876.498291,687.554382 883.720642,679.045349 890.849060,670.458374 
	C900.071838,659.348633 909.266174,648.214966 918.429321,637.055969 
	C924.151489,630.087585 929.793518,623.053345 935.976562,615.537720 
z"/>
<path fill="#5A4AE3" opacity="1.000000" stroke="none" 
	d="
M935.723999,615.793213 
	C929.793518,623.053345 924.151489,630.087585 918.429321,637.055969 
	C909.266174,648.214966 900.071838,659.348633 890.849060,670.458374 
	C883.720642,679.045349 876.498291,687.554382 869.371948,696.143066 
	C860.154114,707.252502 851.010620,718.423584 841.796631,729.536255 
	C834.783813,737.994202 827.684631,746.380432 820.671387,754.838013 
	C809.983459,767.726929 799.342163,780.654480 788.665283,793.552612 
	C787.327454,795.168884 785.894348,796.706421 783.982361,798.873169 
	C864.912292,798.873169 945.122925,798.873169 1025.666260,798.873169 
	C1025.666260,842.343872 1025.666260,885.391785 1025.666260,928.999817 
	C1023.649109,928.999817 1021.705017,928.999817 1019.760864,928.999817 
	C907.110352,928.999817 794.459839,929.043335 681.809631,928.846680 
	C677.112915,928.838440 674.317810,930.710083 671.741150,933.807739 
	C658.929504,949.210205 646.142334,964.633240 633.414246,980.104797 
	C624.762024,990.622070 616.373230,1001.359741 607.575867,1011.752686 
	C601.974487,1018.369995 600.325195,1018.662537 594.856506,1012.243225 
	C585.923767,1001.757812 577.429138,990.900330 568.657532,980.275818 
	C561.551270,971.668396 554.271118,963.204651 547.139648,954.617737 
	C541.166809,947.425842 535.295837,940.149414 529.383362,932.907593 
	C527.198181,930.231079 524.744873,928.888062 520.931274,928.892517 
	C408.114288,929.024780 295.297089,928.999817 182.479950,928.999817 
	C180.513931,928.999817 178.547913,928.999817 176.293274,928.999817 
	C176.293274,885.563477 176.293274,842.515808 176.293274,799.067505 
	C256.728455,799.067505 336.961121,799.067505 418.114594,799.067505 
	C410.816895,790.204102 404.076263,782.033997 397.354034,773.848816 
	C388.511383,763.081665 379.727051,752.266296 370.835175,741.539978 
	C363.492218,732.682068 355.978149,723.966003 348.632935,715.109985 
	C339.632294,704.257996 330.753754,693.304871 321.774689,682.434875 
	C314.862427,674.066956 307.846863,665.784424 300.930450,657.419861 
	C291.846069,646.433411 282.823090,635.396301 273.754852,624.396484 
	C270.199768,620.084229 266.744019,615.676941 262.981842,611.551086 
	C252.823471,600.410889 256.474182,597.589294 263.257172,589.308105 
	C277.710175,571.662781 292.307922,554.135437 306.916321,536.618103 
	C320.794891,519.975952 334.857269,503.486328 348.664124,486.785248 
	C362.029938,470.617584 375.087463,454.195099 388.444122,438.019745 
	C397.546600,426.996307 407.014130,416.274933 416.165161,405.290802 
	C424.988586,394.699951 433.557159,383.897095 442.344757,373.275940 
	C451.135498,362.651031 460.103302,352.172760 468.912537,341.562958 
	C479.394745,328.938202 489.768555,316.223541 500.231720,303.582886 
	C507.463562,294.845978 514.799683,286.195404 522.030579,277.457733 
	C531.143494,266.445801 540.161133,255.355087 549.285706,244.352905 
	C557.997192,233.848740 566.819885,223.436890 575.542603,212.941956 
	C581.519531,205.750702 587.553894,198.599548 593.295044,191.222321 
	C598.666443,184.320251 603.225037,184.342728 608.666626,191.159698 
	C617.679199,202.450287 627.000366,213.494186 636.158752,224.668869 
	C644.896484,235.330383 653.535767,246.073090 662.322815,256.693634 
	C671.112549,267.317352 680.085449,277.789459 688.878967,288.410065 
	C697.763733,299.140900 706.475769,310.014679 715.359192,320.746643 
	C722.589294,329.481262 730.012329,338.056000 737.256531,346.779114 
	C746.262939,357.624176 755.148499,368.569489 764.133301,379.432587 
	C771.156799,387.924347 778.284790,396.329651 785.307129,404.822327 
	C794.288391,415.684204 803.179810,426.620422 812.167358,437.477081 
	C819.280579,446.069641 826.521912,454.556213 833.631042,463.152069 
	C842.505188,473.881897 851.259216,484.711090 860.145447,495.430817 
	C867.489197,504.289673 874.964783,513.039185 882.354736,521.859985 
	C891.209045,532.428833 900.067017,542.994995 908.862183,553.612976 
	C916.092041,562.341248 923.200134,571.170471 930.425476,579.902588 
	C934.409546,584.717407 938.671570,589.308044 942.538696,594.212341 
	C946.445923,599.167603 946.006348,603.979065 941.737183,608.779785 
	C939.770630,610.991211 937.893982,613.282593 935.723999,615.793213 
M787.616455,867.027100 
	C787.993958,867.040710 788.371399,867.054260 788.839172,867.992615 
	C788.839172,877.565857 788.839172,887.139099 788.839172,896.772949 
	C795.114502,896.772949 800.553589,896.772949 806.308350,896.772949 
	C806.308350,875.170837 806.308350,853.797485 806.308350,831.998474 
	C801.677307,831.998474 797.334290,832.365723 793.082642,831.899231 
	C788.472961,831.393494 786.349426,833.203003 784.650635,837.368958 
	C781.318298,845.540771 777.338928,853.448669 773.161255,862.472595 
	C768.727844,852.751648 764.862854,844.138062 760.840088,835.598816 
	C760.200134,834.240479 758.905884,832.258545 757.821106,832.196838 
	C751.927490,831.861145 746.004700,832.037354 740.202576,832.037354 
	C740.202576,854.073364 740.202576,875.312012 740.202576,896.658081 
	C746.074768,896.658081 751.620422,896.658081 757.661682,896.658081 
	C757.661682,891.194885 757.661682,886.064697 757.661682,880.934448 
	C757.661682,875.948608 757.661682,870.962830 757.661682,865.976990 
	C758.085327,865.933899 758.509033,865.890808 758.932678,865.847656 
	C761.593018,871.711426 764.466919,877.490906 766.827271,883.473083 
	C768.084045,886.658203 770.125854,887.000000 773.013000,886.978027 
	C776.003418,886.955200 778.299561,886.806885 779.634094,883.352966 
	C781.786011,877.783936 784.546448,872.450012 787.616455,867.027100 
M604.007202,230.510941 
	C602.952332,229.598541 601.897461,228.686142 600.502075,227.479172 
	C593.612366,235.932312 587.154236,244.004745 580.535217,251.943069 
	C569.914307,264.681152 559.110352,277.267029 548.524475,290.033905 
	C536.383240,304.676636 524.456665,319.497375 512.322205,334.145813 
	C501.850006,346.787537 491.132843,359.226532 480.677734,371.882233 
	C468.878937,386.164398 457.337250,400.659088 445.526672,414.931366 
	C433.371918,429.619568 420.958160,444.093262 408.786285,458.767456 
	C396.637024,473.414398 384.708954,488.244751 372.570312,502.900635 
	C359.047882,519.227356 345.368744,535.424255 331.810974,551.721924 
	C319.017029,567.101501 306.333069,582.572754 293.495026,597.915222 
	C291.449585,600.359619 291.597107,602.091858 293.733002,604.300659 
	C296.594452,607.259766 299.255280,610.422913 301.878601,613.600525 
	C310.738831,624.332947 319.512115,635.137146 328.381073,645.862305 
	C335.502014,654.473816 342.753357,662.977417 349.874786,671.588501 
	C358.757385,682.329163 367.550690,693.143677 376.411346,703.902588 
	C383.927368,713.028809 391.485901,722.120117 399.022919,731.229065 
	C409.066528,743.367310 419.111542,755.504333 429.148376,767.648193 
	C436.879761,777.002563 444.480957,786.469421 452.429474,795.635254 
	C453.926300,797.361389 456.718719,798.631653 459.031006,798.846619 
	C464.152222,799.322815 469.348175,798.994934 474.513672,798.994934 
	C563.660034,798.994934 652.806335,799.010620 741.952576,798.905396 
	C744.183655,798.902771 747.174500,798.244873 748.515747,796.738953 
	C755.493103,788.905640 762.068665,780.713196 768.749023,772.616882 
	C777.835144,761.604980 786.867676,750.548828 795.964539,739.545898 
	C802.872986,731.189941 809.877625,722.913513 816.782349,714.554504 
	C825.765198,703.679626 834.663025,692.734497 843.651306,681.864197 
	C850.661255,673.386475 857.789246,665.006287 864.799927,656.529175 
	C873.791443,645.656677 882.722046,634.733826 891.671204,623.826355 
	C897.890747,616.245728 904.097534,608.654663 910.425110,600.927673 
	C903.725281,592.850586 897.338867,585.139465 890.938965,577.439392 
	C884.007324,569.099609 877.033020,560.795044 870.132019,552.429932 
	C861.268127,541.685486 852.491516,530.868896 843.615845,520.134277 
	C836.499695,511.527740 829.247620,503.033600 822.135986,494.423431 
	C813.361511,483.799957 804.721069,473.065674 795.928467,462.457397 
	C787.117737,451.827301 778.137268,441.337921 769.330200,430.704834 
	C760.446289,419.979065 751.735413,409.109924 742.853882,398.382172 
	C734.056213,387.755768 725.094238,377.265472 716.288818,366.645386 
	C707.287476,355.788940 698.417847,344.823364 689.436646,333.950104 
	C680.747253,323.430206 671.949829,312.999573 663.271667,302.470520 
	C653.155212,290.196289 643.137634,277.840698 633.038391,265.552216 
	C623.560059,254.019363 614.031250,242.528046 604.007202,230.510941 
M538.516968,290.986847 
	C545.479309,282.683289 552.474060,274.406708 559.396851,266.070374 
	C572.205627,250.646332 585.169067,235.343369 597.617859,219.633194 
	C600.729065,215.706909 602.177612,217.265503 604.251953,219.775330 
	C611.885132,229.010925 619.396301,238.347900 627.079468,247.541367 
	C641.089844,264.305847 655.287109,280.914825 669.225220,297.738770 
	C682.621033,313.908112 695.687256,330.350494 709.082275,346.520477 
	C723.014404,363.338837 737.262756,379.895172 751.195374,396.713104 
	C764.591003,412.882812 777.672913,429.312286 791.053528,445.494568 
	C803.297607,460.302307 815.849426,474.855560 828.098633,489.659119 
	C844.843994,509.896393 861.397705,530.292175 878.097412,550.567383 
	C891.051392,566.294983 904.000183,582.029541 917.203674,597.546204 
	C919.650574,600.421875 919.243713,602.719788 917.405518,604.975708 
	C909.096130,615.172974 900.619629,625.234436 892.173889,635.320190 
	C884.892273,644.015869 877.513733,652.630981 870.281494,661.367310 
	C861.401123,672.094482 852.677124,682.951172 843.795227,693.677063 
	C834.989380,704.311096 826.032410,714.820007 817.213074,725.442993 
	C808.092896,736.428345 799.100159,747.519531 789.974609,758.500427 
	C781.155151,769.113037 772.207703,779.619263 763.384216,790.228577 
	C761.217712,792.833618 759.315369,795.658264 757.291565,798.381958 
	C757.652649,798.911377 758.013733,799.440857 758.374817,799.970276 
	C761.594055,798.807800 765.832214,798.565735 767.857117,796.324341 
	C776.887878,786.327881 785.316589,775.785217 793.904907,765.392029 
	C802.795166,754.633484 811.578796,743.786682 820.482239,733.039185 
	C829.185730,722.532959 838.031433,712.144409 846.722961,701.628479 
	C855.502563,691.006104 864.108765,680.240295 872.903198,669.630432 
	C881.707031,659.009216 890.702148,648.546570 899.516907,637.934326 
	C908.733887,626.837891 917.732727,615.558411 927.060730,604.557312 
	C929.392517,601.807251 929.758362,599.854309 926.991821,597.476440 
	C925.987549,596.613281 925.083496,595.612183 924.239685,594.586792 
	C915.282104,583.702026 906.376221,572.774658 897.394165,561.910217 
	C890.382324,553.428833 883.245361,545.050903 876.232483,536.570435 
	C867.245056,525.702209 858.355042,514.753479 849.368713,503.884308 
	C842.355286,495.401581 835.214844,487.023956 828.210754,478.533630 
	C819.437500,467.898651 810.802124,457.149689 802.003540,446.535858 
	C793.186707,435.899811 784.177490,425.423096 775.370300,414.779114 
	C764.904358,402.130402 754.625244,389.327026 744.150391,376.685760 
	C735.338440,366.051300 726.263550,355.634277 717.481567,344.975586 
	C704.137146,328.779663 691.026367,312.391083 677.662903,296.211029 
	C667.098267,283.419678 656.200623,270.903381 645.634521,258.113159 
	C630.743347,240.087311 616.021851,221.921265 601.085022,203.640366 
	C491.134399,336.400421 381.539276,468.731201 272.024139,600.965393 
	C275.466705,605.221191 278.721741,609.336548 282.073853,613.371277 
	C290.791199,623.863586 299.543945,634.326599 308.296295,644.789856 
	C315.459167,653.352966 322.685669,661.863342 329.804626,670.462769 
	C338.801758,681.330994 347.690308,692.289062 356.678833,703.164490 
	C363.688080,711.645020 370.821045,720.023376 377.822083,728.510620 
	C386.588654,739.138184 395.222015,749.875732 404.013580,760.482422 
	C412.819122,771.105957 422.081696,781.371216 430.473694,792.307800 
	C434.276520,797.263733 437.895966,800.414612 444.743286,798.519897 
	C443.896301,797.220215 443.237335,795.936157 442.330750,794.860901 
	C434.806488,785.936951 427.157501,777.117188 419.698059,768.139709 
	C407.222290,753.125000 394.885712,737.994751 382.438599,722.956238 
	C373.955597,712.707092 365.318817,702.584839 356.867950,692.309631 
	C345.092438,677.992126 333.508667,663.516541 321.690674,649.234558 
	C309.541931,634.552856 297.219940,620.014404 284.950165,605.433105 
	C282.617828,602.661316 282.313843,599.785950 284.598602,596.972107 
	C289.560822,590.860718 294.636841,584.841248 299.696564,578.809570 
	C310.253326,566.224792 320.904572,553.718506 331.378387,541.065247 
	C343.413208,526.526306 355.259247,511.831268 367.258606,497.262756 
	C380.090240,481.683807 393.014008,466.180725 405.880920,450.630768 
	C420.209320,433.314514 434.502502,415.969055 448.841583,398.661652 
	C463.499664,380.969238 478.181702,363.296600 492.877350,345.635376 
	C507.903778,327.576569 522.959412,309.542053 538.516968,290.986847 
M548.220398,874.499878 
	C548.220398,881.913330 548.220398,889.326721 548.220398,896.942871 
	C558.041321,896.942871 567.020447,897.057861 575.995544,896.915955 
	C589.492920,896.702515 601.276550,887.677490 604.407166,874.639893 
	C605.430847,870.376770 604.920776,865.729492 604.990234,861.256042 
	C605.193115,848.168884 597.056885,836.115601 584.182007,833.795105 
	C572.608521,831.709167 560.590454,832.089783 548.220398,831.349609 
	C548.220398,846.277222 548.220398,859.888550 548.220398,874.499878 
M310.498047,831.998169 
	C304.737549,831.998169 298.977020,831.998169 293.316162,831.998169 
	C293.316162,854.065186 293.316162,875.414795 293.316162,896.716797 
	C299.013855,896.716797 304.273163,896.716797 310.089783,896.716797 
	C310.089783,890.044678 310.089783,883.641968 310.089783,877.550964 
	C315.576721,875.708191 318.304962,877.939392 320.345428,882.307861 
	C322.309601,886.512878 324.780884,890.496582 327.247345,894.441223 
	C327.932861,895.537598 329.363800,896.821716 330.502319,896.870850 
	C336.229492,897.117676 341.973114,896.984070 348.587616,896.984070 
	C346.036499,892.425781 343.964996,888.696106 341.866119,884.981934 
	C339.678619,881.110901 337.464783,877.254761 335.245056,873.361572 
	C336.086914,872.455505 336.627808,871.843933 337.199524,871.262634 
	C344.358490,863.983154 346.142883,855.450134 342.502594,846.029968 
	C338.952362,836.842834 331.057587,832.033447 320.482117,831.999939 
	C317.486450,831.990479 314.490692,831.998291 310.498047,831.998169 
M888.601685,834.711060 
	C884.260010,833.808716 879.914246,832.125183 875.577393,832.148071 
	C861.662537,832.221313 851.546509,838.864441 845.403015,851.388062 
	C839.056335,864.325745 842.069763,876.148499 850.971497,886.346191 
	C858.631958,895.121887 868.525269,899.709595 880.683533,897.034485 
	C895.678345,893.735291 906.178162,883.150696 907.929016,869.504944 
	C909.789917,855.001404 902.931702,842.294739 888.601685,834.711060 
M652.424438,837.877991 
	C644.086182,843.579895 639.131958,851.762207 638.163635,861.477600 
	C635.919434,883.995728 658.977417,903.665894 680.630615,896.193481 
	C698.965698,889.866211 708.537415,871.114197 701.559570,852.667969 
	C694.349548,833.608337 670.973206,826.018433 652.424438,837.877991 
M382.885010,855.500000 
	C382.885010,869.242249 382.885010,882.984497 382.885010,896.729065 
	C398.631927,896.729065 413.557526,896.729065 428.620209,896.729065 
	C428.620209,891.590698 428.620209,886.728027 428.620209,881.082886 
	C418.892059,881.082886 409.517303,881.082886 400.264740,881.082886 
	C400.264740,877.681580 400.264740,875.071289 400.264740,871.996399 
	C406.973541,871.996399 413.434448,872.142090 419.878967,871.882080 
	C421.285187,871.825317 423.709717,870.439331 423.819336,869.459106 
	C424.269684,865.431702 424.007599,861.324707 424.007599,856.848877 
	C415.652100,856.848877 408.051422,856.848877 400.309753,856.848877 
	C400.309753,853.698853 400.309753,850.971069 400.309753,847.513184 
	C409.647369,847.513184 418.697754,847.513184 427.795013,847.513184 
	C427.795013,842.013611 427.795013,837.254272 427.795013,832.311401 
	C412.784210,832.311401 398.062897,832.311401 382.885010,832.311401 
	C382.885010,839.910889 382.885010,847.205444 382.885010,855.500000 
M987.762085,845.221558 
	C988.686096,843.310242 989.610168,841.398926 990.900391,838.730164 
	C986.098022,836.922668 981.750427,834.887756 977.186035,833.656433 
	C969.198792,831.501709 961.260803,831.213135 953.449219,835.060730 
	C945.788879,838.833801 938.967834,851.378052 943.648438,860.385742 
	C946.152039,865.203796 949.994263,868.030273 954.711975,869.869446 
	C959.813782,871.858215 965.135925,873.284485 970.222351,875.307251 
	C971.446228,875.794006 972.119080,877.666626 973.045349,878.901917 
	C971.752258,879.683411 970.449524,881.134094 969.168030,881.115540 
	C965.884583,881.068054 962.488525,880.771606 959.363220,879.827332 
	C955.294556,878.598022 951.444031,876.647034 947.137573,874.856140 
	C944.674805,879.850952 942.282959,884.702026 939.434998,890.478027 
	C945.558289,892.585327 951.102722,894.645569 956.742737,896.398376 
	C964.929810,898.942871 973.054260,898.420532 980.919250,895.049500 
	C987.333740,892.300171 991.382935,887.707642 992.077332,880.426025 
	C992.915649,871.635010 990.693176,864.486328 981.934509,860.851746 
	C977.190186,858.882996 972.115295,857.685120 967.444397,855.575317 
	C965.044739,854.491394 961.176086,851.628296 961.475952,850.504395 
	C962.548889,846.483521 966.550781,848.175415 969.543274,848.191345 
	C970.345459,848.195618 971.168762,848.541138 971.942566,848.834656 
	C975.644226,850.238708 979.332153,851.678772 983.483337,853.283203 
	C984.783936,850.805481 986.077942,848.340332 987.762085,845.221558 
M490.615814,857.000000 
	C488.341003,857.000000 486.066162,857.000000 483.600403,857.000000 
	C483.600403,853.660889 483.600403,850.933838 483.600403,847.515137 
	C492.819519,847.515137 501.718445,847.515137 510.666504,847.515137 
	C510.666504,842.055786 510.666504,837.295105 510.666504,832.272217 
	C495.674255,832.272217 480.957092,832.272217 465.994202,832.272217 
	C465.994202,853.883057 465.994202,875.220398 465.994202,896.710205 
	C481.093628,896.710205 495.814575,896.710205 510.682068,896.710205 
	C510.682068,891.556030 510.682068,886.695251 510.682068,881.172485 
	C501.469849,881.172485 492.582611,881.172485 483.687286,881.172485 
	C483.687286,877.621765 483.687286,874.749207 483.687286,871.320679 
	C491.519287,871.320679 498.932953,871.320679 506.631866,871.320679 
	C506.631866,866.357544 506.631866,861.963196 506.631866,857.000000 
	C501.474518,857.000000 496.528687,857.000000 490.615814,857.000000 
M213.222656,870.499939 
	C213.222656,879.248169 213.222656,887.996399 213.222656,896.596191 
	C219.677216,896.596191 225.250015,896.596191 231.256683,896.596191 
	C231.256683,888.599548 231.256683,881.003113 231.256683,872.878967 
	C238.608429,872.878967 245.516800,872.878967 252.606964,872.878967 
	C252.606964,868.085388 252.606964,863.836792 252.606964,858.872375 
	C245.325134,858.872375 238.283371,858.872375 231.485443,858.872375 
	C231.485443,854.750427 231.485443,851.353577 231.485443,847.442017 
	C240.355270,847.442017 248.798111,847.442017 257.421875,847.442017 
	C257.421875,842.038086 257.421875,837.169617 257.421875,832.314758 
	C242.596909,832.314758 228.172821,832.314758 213.222687,832.314758 
	C213.222687,844.915222 213.222687,857.207581 213.222656,870.499939 
M572.070435,940.354126 
	C581.625671,951.718445 591.180847,963.082703 601.090637,974.868774 
	C613.971924,959.321777 626.259033,944.491943 638.729248,929.441162 
	C613.345581,929.441162 588.469055,929.441162 563.149353,929.441162 
	C566.349121,933.160950 569.139954,936.405334 572.070435,940.354126 
M599.946228,996.658020 
	C600.604065,996.868835 601.673767,997.444763 601.858643,997.236267 
	C605.128540,993.548523 608.335632,989.802368 611.467896,985.996155 
	C622.098572,973.078674 632.701355,960.138306 643.300537,947.195007 
	C648.099304,941.334961 652.864441,935.447327 657.961060,929.183411 
	C649.324585,928.804016 649.297180,928.778809 644.197876,934.324036 
	C642.197693,936.499146 640.318604,938.788696 638.439270,941.071289 
	C631.261414,949.789307 624.146790,958.559814 616.926941,967.242737 
	C612.406189,972.679810 607.748901,978.003479 603.134338,983.362183 
	C601.370789,985.410156 600.184753,985.623535 598.281189,982.989380 
	C594.828003,978.210815 590.672729,973.945068 586.904480,969.387573 
	C577.811951,958.390564 568.616455,947.472961 559.769775,936.280518 
	C554.056213,929.052124 551.874939,927.809082 544.495056,929.823303 
	C547.731812,933.788940 550.898315,937.740662 554.141968,941.627991 
	C561.293518,950.198914 568.502258,958.722229 575.653748,967.293213 
	C583.639893,976.864563 591.588501,986.467224 599.946228,996.658020 
z"/>
<path fill="#000000" opacity="1.000000" stroke="none" 
	d="
M604.265930,230.764709 
	C614.031250,242.528046 623.560059,254.019363 633.038391,265.552216 
	C643.137634,277.840698 653.155212,290.196289 663.271667,302.470520 
	C671.949829,312.999573 680.747253,323.430206 689.436646,333.950104 
	C698.417847,344.823364 707.287476,355.788940 716.288818,366.645386 
	C725.094238,377.265472 734.056213,387.755768 742.853882,398.382172 
	C751.735413,409.109924 760.446289,419.979065 769.330200,430.704834 
	C778.137268,441.337921 787.117737,451.827301 795.928467,462.457397 
	C804.721069,473.065674 813.361511,483.799957 822.135986,494.423431 
	C829.247620,503.033600 836.499695,511.527740 843.615845,520.134277 
	C852.491516,530.868896 861.268127,541.685486 870.132019,552.429932 
	C877.033020,560.795044 884.007324,569.099609 890.938965,577.439392 
	C897.338867,585.139465 903.725281,592.850586 910.425110,600.927673 
	C904.097534,608.654663 897.890747,616.245728 891.671204,623.826355 
	C882.722046,634.733826 873.791443,645.656677 864.799927,656.529175 
	C857.789246,665.006287 850.661255,673.386475 843.651306,681.864197 
	C834.663025,692.734497 825.765198,703.679626 816.782349,714.554504 
	C809.877625,722.913513 802.872986,731.189941 795.964539,739.545898 
	C786.867676,750.548828 777.835144,761.604980 768.749023,772.616882 
	C762.068665,780.713196 755.493103,788.905640 748.515747,796.738953 
	C747.174500,798.244873 744.183655,798.902771 741.952576,798.905396 
	C652.806335,799.010620 563.660034,798.994934 474.513672,798.994934 
	C469.348175,798.994934 464.152222,799.322815 459.031006,798.846619 
	C456.718719,798.631653 453.926300,797.361389 452.429474,795.635254 
	C444.480957,786.469421 436.879761,777.002563 429.148376,767.648193 
	C419.111542,755.504333 409.066528,743.367310 399.022919,731.229065 
	C391.485901,722.120117 383.927368,713.028809 376.411346,703.902588 
	C367.550690,693.143677 358.757385,682.329163 349.874786,671.588501 
	C342.753357,662.977417 335.502014,654.473816 328.381073,645.862305 
	C319.512115,635.137146 310.738831,624.332947 301.878601,613.600525 
	C299.255280,610.422913 296.594452,607.259766 293.733002,604.300659 
	C291.597107,602.091858 291.449585,600.359619 293.495026,597.915222 
	C306.333069,582.572754 319.017029,567.101501 331.810974,551.721924 
	C345.368744,535.424255 359.047882,519.227356 372.570312,502.900635 
	C384.708954,488.244751 396.637024,473.414398 408.786285,458.767456 
	C420.958160,444.093262 433.371918,429.619568 445.526672,414.931366 
	C457.337250,400.659088 468.878937,386.164398 480.677734,371.882233 
	C491.132843,359.226532 501.850006,346.787537 512.322205,334.145813 
	C524.456665,319.497375 536.383240,304.676636 548.524475,290.033905 
	C559.110352,277.267029 569.914307,264.681152 580.535217,251.943069 
	C587.154236,244.004745 593.612366,235.932312 600.502075,227.479172 
	C601.897461,228.686142 602.952332,229.598541 604.265930,230.764709 
M591.004761,700.500000 
	C591.004761,681.595337 591.004761,662.690674 591.004761,643.665222 
	C593.562500,643.795471 595.301331,643.960327 597.040283,643.961243 
	C626.197571,643.977051 655.354797,643.977539 684.512085,643.968384 
	C690.796997,643.966370 691.988525,642.776245 691.993225,636.481812 
	C692.007019,618.154358 692.007568,599.826965 691.992981,581.499512 
	C691.987976,575.218933 691.767090,575.003479 685.592529,575.001892 
	C655.768799,574.994385 625.944824,574.937622 596.121643,575.071411 
	C592.226379,575.088867 590.822571,574.004639 590.923035,569.973083 
	C591.171936,559.982483 591.004761,549.981506 591.004761,539.984741 
	C591.004761,535.729553 591.004761,531.474304 591.004761,526.997131 
	C593.546387,526.997131 595.365356,526.997070 597.184387,526.997070 
	C634.339050,526.997009 671.493958,526.943848 708.648193,527.072144 
	C712.750977,527.086365 714.130981,525.929138 714.089661,521.693604 
	C713.891235,501.368744 714.001038,481.040894 714.000610,460.714111 
	C714.000488,453.032471 713.999695,453.025604 706.375854,453.025391 
	C642.563110,453.023499 578.750366,453.013123 514.937683,453.065277 
	C512.395203,453.067352 509.853241,453.670929 507.183533,454.010468 
	C507.103363,455.298370 507.008606,456.110535 507.008545,456.922699 
	C507.001099,554.724487 507.019073,652.526306 506.932312,750.328064 
	C506.928864,754.205139 508.408325,755.076355 511.956604,755.059875 
	C536.614807,754.945312 561.274353,754.916809 585.931946,755.083313 
	C589.896912,755.110046 591.131104,753.959778 591.083923,749.983459 
	C590.892395,733.824280 591.004639,717.661438 591.004761,700.500000 
z"/>
<path fill="#000000" opacity="1.000000" stroke="none" 
	d="
M538.259644,291.241882 
	C522.959412,309.542053 507.903778,327.576569 492.877350,345.635376 
	C478.181702,363.296600 463.499664,380.969238 448.841583,398.661652 
	C434.502502,415.969055 420.209320,433.314514 405.880920,450.630768 
	C393.014008,466.180725 380.090240,481.683807 367.258606,497.262756 
	C355.259247,511.831268 343.413208,526.526306 331.378387,541.065247 
	C320.904572,553.718506 310.253326,566.224792 299.696564,578.809570 
	C294.636841,584.841248 289.560822,590.860718 284.598602,596.972107 
	C282.313843,599.785950 282.617828,602.661316 284.950165,605.433105 
	C297.219940,620.014404 309.541931,634.552856 321.690674,649.234558 
	C333.508667,663.516541 345.092438,677.992126 356.867950,692.309631 
	C365.318817,702.584839 373.955597,712.707092 382.438599,722.956238 
	C394.885712,737.994751 407.222290,753.125000 419.698059,768.139709 
	C427.157501,777.117188 434.806488,785.936951 442.330750,794.860901 
	C443.237335,795.936157 443.896301,797.220215 444.743286,798.519897 
	C437.895966,800.414612 434.276520,797.263733 430.473694,792.307800 
	C422.081696,781.371216 412.819122,771.105957 404.013580,760.482422 
	C395.222015,749.875732 386.588654,739.138184 377.822083,728.510620 
	C370.821045,720.023376 363.688080,711.645020 356.678833,703.164490 
	C347.690308,692.289062 338.801758,681.330994 329.804626,670.462769 
	C322.685669,661.863342 315.459167,653.352966 308.296295,644.789856 
	C299.543945,634.326599 290.791199,623.863586 282.073853,613.371277 
	C278.721741,609.336548 275.466705,605.221191 272.024139,600.965393 
	C381.539276,468.731201 491.134399,336.400421 601.085022,203.640366 
	C616.021851,221.921265 630.743347,240.087311 645.634521,258.113159 
	C656.200623,270.903381 667.098267,283.419678 677.662903,296.211029 
	C691.026367,312.391083 704.137146,328.779663 717.481567,344.975586 
	C726.263550,355.634277 735.338440,366.051300 744.150391,376.685760 
	C754.625244,389.327026 764.904358,402.130402 775.370300,414.779114 
	C784.177490,425.423096 793.186707,435.899811 802.003540,446.535858 
	C810.802124,457.149689 819.437500,467.898651 828.210754,478.533630 
	C835.214844,487.023956 842.355286,495.401581 849.368713,503.884308 
	C858.355042,514.753479 867.245056,525.702209 876.232483,536.570435 
	C883.245361,545.050903 890.382324,553.428833 897.394165,561.910217 
	C906.376221,572.774658 915.282104,583.702026 924.239685,594.586792 
	C925.083496,595.612183 925.987549,596.613281 926.991821,597.476440 
	C929.758362,599.854309 929.392517,601.807251 927.060730,604.557312 
	C917.732727,615.558411 908.733887,626.837891 899.516907,637.934326 
	C890.702148,648.546570 881.707031,659.009216 872.903198,669.630432 
	C864.108765,680.240295 855.502563,691.006104 846.722961,701.628479 
	C838.031433,712.144409 829.185730,722.532959 820.482239,733.039185 
	C811.578796,743.786682 802.795166,754.633484 793.904907,765.392029 
	C785.316589,775.785217 776.887878,786.327881 767.857117,796.324341 
	C765.832214,798.565735 761.594055,798.807800 758.374817,799.970276 
	C758.013733,799.440857 757.652649,798.911377 757.291565,798.381958 
	C759.315369,795.658264 761.217712,792.833618 763.384216,790.228577 
	C772.207703,779.619263 781.155151,769.113037 789.974609,758.500427 
	C799.100159,747.519531 808.092896,736.428345 817.213074,725.442993 
	C826.032410,714.820007 834.989380,704.311096 843.795227,693.677063 
	C852.677124,682.951172 861.401123,672.094482 870.281494,661.367310 
	C877.513733,652.630981 884.892273,644.015869 892.173889,635.320190 
	C900.619629,625.234436 909.096130,615.172974 917.405518,604.975708 
	C919.243713,602.719788 919.650574,600.421875 917.203674,597.546204 
	C904.000183,582.029541 891.051392,566.294983 878.097412,550.567383 
	C861.397705,530.292175 844.843994,509.896393 828.098633,489.659119 
	C815.849426,474.855560 803.297607,460.302307 791.053528,445.494568 
	C777.672913,429.312286 764.591003,412.882812 751.195374,396.713104 
	C737.262756,379.895172 723.014404,363.338837 709.082275,346.520477 
	C695.687256,330.350494 682.621033,313.908112 669.225220,297.738770 
	C655.287109,280.914825 641.089844,264.305847 627.079468,247.541367 
	C619.396301,238.347900 611.885132,229.010925 604.251953,219.775330 
	C602.177612,217.265503 600.729065,215.706909 597.617859,219.633194 
	C585.169067,235.343369 572.205627,250.646332 559.396851,266.070374 
	C552.474060,274.406708 545.479309,282.683289 538.259644,291.241882 
z"/>
<path fill="#EEEEEF" opacity="1.000000" stroke="none" 
	d="
M787.049866,867.016785 
	C784.546448,872.450012 781.786011,877.783936 779.634094,883.352966 
	C778.299561,886.806885 776.003418,886.955200 773.013000,886.978027 
	C770.125854,887.000000 768.084045,886.658203 766.827271,883.473083 
	C764.466919,877.490906 761.593018,871.711426 758.932678,865.847656 
	C758.509033,865.890808 758.085327,865.933899 757.661682,865.976990 
	C757.661682,870.962830 757.661682,875.948608 757.661682,880.934448 
	C757.661682,886.064697 757.661682,891.194885 757.661682,896.658081 
	C751.620422,896.658081 746.074768,896.658081 740.202576,896.658081 
	C740.202576,875.312012 740.202576,854.073364 740.202576,832.037354 
	C746.004700,832.037354 751.927490,831.861145 757.821106,832.196838 
	C758.905884,832.258545 760.200134,834.240479 760.840088,835.598816 
	C764.862854,844.138062 768.727844,852.751648 773.161255,862.472595 
	C777.338928,853.448669 781.318298,845.540771 784.650635,837.368958 
	C786.349426,833.203003 788.472961,831.393494 793.082642,831.899231 
	C797.334290,832.365723 801.677307,831.998474 806.308350,831.998474 
	C806.308350,853.797485 806.308350,875.170837 806.308350,896.772949 
	C800.553589,896.772949 795.114502,896.772949 788.839172,896.772949 
	C788.839172,887.139099 788.839172,877.565857 788.881104,867.236938 
	C788.854492,865.906555 788.785950,865.331726 788.593628,863.718872 
	C787.795105,865.424744 787.422485,866.220764 787.049866,867.016785 
M757.509766,863.493958 
	C757.509766,863.493958 757.542725,863.572205 757.509766,863.493958 
z"/>
<path fill="#EEEEEF" opacity="1.000000" stroke="none" 
	d="
M548.220398,873.999878 
	C548.220398,859.888550 548.220398,846.277222 548.220398,831.349609 
	C560.590454,832.089783 572.608521,831.709167 584.182007,833.795105 
	C597.056885,836.115601 605.193115,848.168884 604.990234,861.256042 
	C604.920776,865.729492 605.430847,870.376770 604.407166,874.639893 
	C601.276550,887.677490 589.492920,896.702515 575.995544,896.915955 
	C567.020447,897.057861 558.041321,896.942871 548.220398,896.942871 
	C548.220398,889.326721 548.220398,881.913330 548.220398,873.999878 
M580.620483,849.553467 
	C575.885193,848.863586 571.149841,848.173706 566.367310,847.476990 
	C566.367310,859.784851 566.367310,870.695435 566.367310,881.557800 
	C576.448303,882.830627 582.921448,880.025330 585.991211,873.232361 
	C589.293335,865.925232 587.111389,855.141418 580.620483,849.553467 
z"/>
<path fill="#EEEEEF" opacity="1.000000" stroke="none" 
	d="
M310.996521,831.998169 
	C314.490692,831.998291 317.486450,831.990479 320.482117,831.999939 
	C331.057587,832.033447 338.952362,836.842834 342.502594,846.029968 
	C346.142883,855.450134 344.358490,863.983154 337.199524,871.262634 
	C336.627808,871.843933 336.086914,872.455505 335.245056,873.361572 
	C337.464783,877.254761 339.678619,881.110901 341.866119,884.981934 
	C343.964996,888.696106 346.036499,892.425781 348.587616,896.984070 
	C341.973114,896.984070 336.229492,897.117676 330.502319,896.870850 
	C329.363800,896.821716 327.932861,895.537598 327.247345,894.441223 
	C324.780884,890.496582 322.309601,886.512878 320.345428,882.307861 
	C318.304962,877.939392 315.576721,875.708191 310.089783,877.550964 
	C310.089783,883.641968 310.089783,890.044678 310.089783,896.716797 
	C304.273163,896.716797 299.013855,896.716797 293.316162,896.716797 
	C293.316162,875.414795 293.316162,854.065186 293.316162,831.998169 
	C298.977020,831.998169 304.737549,831.998169 310.996521,831.998169 
M317.390930,847.998779 
	C314.991699,847.998779 312.592468,847.998779 310.002869,847.998779 
	C310.002869,851.943298 310.094879,855.087708 309.975311,858.224060 
	C309.869507,860.999573 311.041229,862.196533 313.801300,862.014954 
	C315.286102,861.917358 316.783142,862.022400 318.273987,861.996643 
	C323.710815,861.902588 326.090240,859.697021 326.146942,854.724060 
	C326.205933,849.548340 324.420502,848.016296 317.390930,847.998779 
z"/>
<path fill="#EDEDEF" opacity="1.000000" stroke="none" 
	d="
M888.956543,834.861084 
	C902.931702,842.294739 909.789917,855.001404 907.929016,869.504944 
	C906.178162,883.150696 895.678345,893.735291 880.683533,897.034485 
	C868.525269,899.709595 858.631958,895.121887 850.971497,886.346191 
	C842.069763,876.148499 839.056335,864.325745 845.403015,851.388062 
	C851.546509,838.864441 861.662537,832.221313 875.577393,832.148071 
	C879.914246,832.125183 884.260010,833.808716 888.956543,834.861084 
M861.288635,859.030090 
	C858.950195,865.162964 861.141357,874.372070 866.234253,878.384521 
	C869.652771,881.077820 873.375000,882.952759 878.141724,881.476807 
	C886.571655,878.866394 890.457397,873.171448 890.052917,863.302063 
	C889.726807,855.347900 884.895630,849.151978 878.175598,848.069824 
	C870.338257,846.807739 864.862244,850.179810 861.288635,859.030090 
z"/>
<path fill="#EDEDEF" opacity="1.000000" stroke="none" 
	d="
M652.720459,837.669189 
	C670.973206,826.018433 694.349548,833.608337 701.559570,852.667969 
	C708.537415,871.114197 698.965698,889.866211 680.630615,896.193481 
	C658.977417,903.665894 635.919434,883.995728 638.163635,861.477600 
	C639.131958,851.762207 644.086182,843.579895 652.720459,837.669189 
M676.313904,848.754211 
	C667.553894,846.558105 661.213989,849.209900 658.017212,856.407410 
	C654.156311,865.100220 656.447510,874.825745 663.414734,879.482117 
	C666.714783,881.687561 670.041504,882.586426 674.135559,881.507507 
	C681.737854,879.504211 684.994629,874.132263 685.748718,867.056763 
	C686.559265,859.450684 684.501587,852.841248 676.313904,848.754211 
z"/>
<path fill="#EFEFEF" opacity="1.000000" stroke="none" 
	d="
M382.885010,855.000000 
	C382.885010,847.205444 382.885010,839.910889 382.885010,832.311401 
	C398.062897,832.311401 412.784210,832.311401 427.795013,832.311401 
	C427.795013,837.254272 427.795013,842.013611 427.795013,847.513184 
	C418.697754,847.513184 409.647369,847.513184 400.309753,847.513184 
	C400.309753,850.971069 400.309753,853.698853 400.309753,856.848877 
	C408.051422,856.848877 415.652100,856.848877 424.007599,856.848877 
	C424.007599,861.324707 424.269684,865.431702 423.819336,869.459106 
	C423.709717,870.439331 421.285187,871.825317 419.878967,871.882080 
	C413.434448,872.142090 406.973541,871.996399 400.264740,871.996399 
	C400.264740,875.071289 400.264740,877.681580 400.264740,881.082886 
	C409.517303,881.082886 418.892059,881.082886 428.620209,881.082886 
	C428.620209,886.728027 428.620209,891.590698 428.620209,896.729065 
	C413.557526,896.729065 398.631927,896.729065 382.885010,896.729065 
	C382.885010,882.984497 382.885010,869.242249 382.885010,855.000000 
z"/>
<path fill="#EDEDEF" opacity="1.000000" stroke="none" 
	d="
M987.567017,845.548340 
	C986.077942,848.340332 984.783936,850.805481 983.483337,853.283203 
	C979.332153,851.678772 975.644226,850.238708 971.942566,848.834656 
	C971.168762,848.541138 970.345459,848.195618 969.543274,848.191345 
	C966.550781,848.175415 962.548889,846.483521 961.475952,850.504395 
	C961.176086,851.628296 965.044739,854.491394 967.444397,855.575317 
	C972.115295,857.685120 977.190186,858.882996 981.934509,860.851746 
	C990.693176,864.486328 992.915649,871.635010 992.077332,880.426025 
	C991.382935,887.707642 987.333740,892.300171 980.919250,895.049500 
	C973.054260,898.420532 964.929810,898.942871 956.742737,896.398376 
	C951.102722,894.645569 945.558289,892.585327 939.434998,890.478027 
	C942.282959,884.702026 944.674805,879.850952 947.137573,874.856140 
	C951.444031,876.647034 955.294556,878.598022 959.363220,879.827332 
	C962.488525,880.771606 965.884583,881.068054 969.168030,881.115540 
	C970.449524,881.134094 971.752258,879.683411 973.045349,878.901917 
	C972.119080,877.666626 971.446228,875.794006 970.222351,875.307251 
	C965.135925,873.284485 959.813782,871.858215 954.711975,869.869446 
	C949.994263,868.030273 946.152039,865.203796 943.648438,860.385742 
	C938.967834,851.378052 945.788879,838.833801 953.449219,835.060730 
	C961.260803,831.213135 969.198792,831.501709 977.186035,833.656433 
	C981.750427,834.887756 986.098022,836.922668 990.900391,838.730164 
	C989.610168,841.398926 988.686096,843.310242 987.567017,845.548340 
z"/>
<path fill="#EFEFEF" opacity="1.000000" stroke="none" 
	d="
M491.099365,857.000000 
	C496.528687,857.000000 501.474518,857.000000 506.631866,857.000000 
	C506.631866,861.963196 506.631866,866.357544 506.631866,871.320679 
	C498.932953,871.320679 491.519287,871.320679 483.687286,871.320679 
	C483.687286,874.749207 483.687286,877.621765 483.687286,881.172485 
	C492.582611,881.172485 501.469849,881.172485 510.682068,881.172485 
	C510.682068,886.695251 510.682068,891.556030 510.682068,896.710205 
	C495.814575,896.710205 481.093628,896.710205 465.994202,896.710205 
	C465.994202,875.220398 465.994202,853.883057 465.994202,832.272217 
	C480.957092,832.272217 495.674255,832.272217 510.666504,832.272217 
	C510.666504,837.295105 510.666504,842.055786 510.666504,847.515137 
	C501.718445,847.515137 492.819519,847.515137 483.600403,847.515137 
	C483.600403,850.933838 483.600403,853.660889 483.600403,857.000000 
	C486.066162,857.000000 488.341003,857.000000 491.099365,857.000000 
z"/>
<path fill="#EFEFEF" opacity="1.000000" stroke="none" 
	d="
M213.222672,869.999878 
	C213.222687,857.207581 213.222687,844.915222 213.222687,832.314758 
	C228.172821,832.314758 242.596909,832.314758 257.421875,832.314758 
	C257.421875,837.169617 257.421875,842.038086 257.421875,847.442017 
	C248.798111,847.442017 240.355270,847.442017 231.485443,847.442017 
	C231.485443,851.353577 231.485443,854.750427 231.485443,858.872375 
	C238.283371,858.872375 245.325134,858.872375 252.606964,858.872375 
	C252.606964,863.836792 252.606964,868.085388 252.606964,872.878967 
	C245.516800,872.878967 238.608429,872.878967 231.256683,872.878967 
	C231.256683,881.003113 231.256683,888.599548 231.256683,896.596191 
	C225.250015,896.596191 219.677216,896.596191 213.222656,896.596191 
	C213.222656,887.996399 213.222656,879.248169 213.222672,869.999878 
z"/>
<path fill="#000000" opacity="1.000000" stroke="none" 
	d="
M572.000610,940.001953 
	C569.139954,936.405334 566.349121,933.160950 563.149353,929.441162 
	C588.469055,929.441162 613.345581,929.441162 638.729248,929.441162 
	C626.259033,944.491943 613.971924,959.321777 601.090637,974.868774 
	C591.180847,963.082703 581.625671,951.718445 572.000610,940.001953 
z"/>
<path fill="#000000" opacity="1.000000" stroke="none" 
	d="
M599.749817,996.357178 
	C591.588501,986.467224 583.639893,976.864563 575.653748,967.293213 
	C568.502258,958.722229 561.293518,950.198914 554.141968,941.627991 
	C550.898315,937.740662 547.731812,933.788940 544.495056,929.823303 
	C551.874939,927.809082 554.056213,929.052124 559.769775,936.280518 
	C568.616455,947.472961 577.811951,958.390564 586.904480,969.387573 
	C590.672729,973.945068 594.828003,978.210815 598.281189,982.989380 
	C600.184753,985.623535 601.370789,985.410156 603.134338,983.362183 
	C607.748901,978.003479 612.406189,972.679810 616.926941,967.242737 
	C624.146790,958.559814 631.261414,949.789307 638.439270,941.071289 
	C640.318604,938.788696 642.197693,936.499146 644.197876,934.324036 
	C649.297180,928.778809 649.324585,928.804016 657.961060,929.183411 
	C652.864441,935.447327 648.099304,941.334961 643.300537,947.195007 
	C632.701355,960.138306 622.098572,973.078674 611.467896,985.996155 
	C608.335632,989.802368 605.128540,993.548523 601.858643,997.236267 
	C601.673767,997.444763 600.604065,996.868835 599.749817,996.357178 
z"/>
<path fill="#7A6EE6" opacity="1.000000" stroke="none" 
	d="
M787.333130,867.021973 
	C787.422485,866.220764 787.795105,865.424744 788.593628,863.718872 
	C788.785950,865.331726 788.854492,865.906555 788.835938,866.774597 
	C788.371399,867.054260 787.993958,867.040710 787.333130,867.021973 
z"/>
<path fill="#5A4AE3" opacity="1.000000" stroke="none" 
	d="
M591.004761,701.000000 
	C591.004639,717.661438 590.892395,733.824280 591.083923,749.983459 
	C591.131104,753.959778 589.896912,755.110046 585.931946,755.083313 
	C561.274353,754.916809 536.614807,754.945312 511.956604,755.059875 
	C508.408325,755.076355 506.928864,754.205139 506.932312,750.328064 
	C507.019073,652.526306 507.001099,554.724487 507.008545,456.922699 
	C507.008606,456.110535 507.103363,455.298370 507.183533,454.010468 
	C509.853241,453.670929 512.395203,453.067352 514.937683,453.065277 
	C578.750366,453.013123 642.563110,453.023499 706.375854,453.025391 
	C713.999695,453.025604 714.000488,453.032471 714.000610,460.714111 
	C714.001038,481.040894 713.891235,501.368744 714.089661,521.693604 
	C714.130981,525.929138 712.750977,527.086365 708.648193,527.072144 
	C671.493958,526.943848 634.339050,526.997009 597.184387,526.997070 
	C595.365356,526.997070 593.546387,526.997131 591.004761,526.997131 
	C591.004761,531.474304 591.004761,535.729553 591.004761,539.984741 
	C591.004761,549.981506 591.171936,559.982483 590.923035,569.973083 
	C590.822571,574.004639 592.226379,575.088867 596.121643,575.071411 
	C625.944824,574.937622 655.768799,574.994385 685.592529,575.001892 
	C691.767090,575.003479 691.987976,575.218933 691.992981,581.499512 
	C692.007568,599.826965 692.007019,618.154358 691.993225,636.481812 
	C691.988525,642.776245 690.796997,643.966370 684.512085,643.968384 
	C655.354797,643.977539 626.197571,643.977051 597.040283,643.961243 
	C595.301331,643.960327 593.562500,643.795471 591.004761,643.665222 
	C591.004761,662.690674 591.004761,681.595337 591.004761,701.000000 
z"/>
<path fill="#B1AAEA" opacity="1.000000" stroke="none" 
	d="
M757.526245,863.533081 
	C757.542725,863.572205 757.509766,863.493958 757.526245,863.533081 
z"/>
<path fill="#5C4CE3" opacity="1.000000" stroke="none" 
	d="
M580.951660,849.757690 
	C587.111389,855.141418 589.293335,865.925232 585.991211,873.232361 
	C582.921448,880.025330 576.448303,882.830627 566.367310,881.557800 
	C566.367310,870.695435 566.367310,859.784851 566.367310,847.476990 
	C571.149841,848.173706 575.885193,848.863586 580.951660,849.757690 
z"/>
<path fill="#5B4BE3" opacity="1.000000" stroke="none" 
	d="
M317.850220,847.998779 
	C324.420502,848.016296 326.205933,849.548340 326.146942,854.724060 
	C326.090240,859.697021 323.710815,861.902588 318.273987,861.996643 
	C316.783142,862.022400 315.286102,861.917358 313.801300,862.014954 
	C311.041229,862.196533 309.869507,860.999573 309.975311,858.224060 
	C310.094879,855.087708 310.002869,851.943298 310.002869,847.998779 
	C312.592468,847.998779 314.991699,847.998779 317.850220,847.998779 
z"/>
<path fill="#5C4CE3" opacity="1.000000" stroke="none" 
	d="
M861.431030,858.661621 
	C864.862244,850.179810 870.338257,846.807739 878.175598,848.069824 
	C884.895630,849.151978 889.726807,855.347900 890.052917,863.302063 
	C890.457397,873.171448 886.571655,878.866394 878.141724,881.476807 
	C873.375000,882.952759 869.652771,881.077820 866.234253,878.384521 
	C861.141357,874.372070 858.950195,865.162964 861.431030,858.661621 
z"/>
<path fill="#5C4CE3" opacity="1.000000" stroke="none" 
	d="
M676.688110,848.887817 
	C684.501587,852.841248 686.559265,859.450684 685.748718,867.056763 
	C684.994629,874.132263 681.737854,879.504211 674.135559,881.507507 
	C670.041504,882.586426 666.714783,881.687561 663.414734,879.482117 
	C656.447510,874.825745 654.156311,865.100220 658.017212,856.407410 
	C661.213989,849.209900 667.553894,846.558105 676.688110,848.887817 
z"/>
</svg>