<?xml version="1.0" encoding="UTF-8"?>
<!DOCTYPE svg PUBLIC "-//W3C//DTD SVG 1.1//EN" "http://www.w3.org/Graphics/SVG/1.1/DTD/svg11.dtd">
<svg xmlns="http://www.w3.org/2000/svg" version="1.1" width="600px" height="600px" style="shape-rendering:geometricPrecision; text-rendering:geometricPrecision; image-rendering:optimizeQuality; fill-rule:evenodd; clip-rule:evenodd" xmlns:xlink="http://www.w3.org/1999/xlink">
<g><path style="opacity:1" fill="#5c108b" d="M 81.5,273.5 C 81.3333,239.832 81.5,206.165 82,172.5C 82.7172,171.956 83.2172,171.289 83.5,170.5C 83.8417,169.662 84.5084,169.328 85.5,169.5C 87.674,169.25 89.3406,168.25 90.5,166.5C 90.8417,165.662 91.5084,165.328 92.5,165.5C 94.0269,165.573 95.0269,164.906 95.5,163.5C 96.5137,162.326 97.847,161.66 99.5,161.5C 101.027,161.573 102.027,160.906 102.5,159.5C 103.514,158.326 104.847,157.66 106.5,157.5C 108.027,157.573 109.027,156.906 109.5,155.5C 114.502,151.997 119.835,148.997 125.5,146.5C 127.027,146.573 128.027,145.906 128.5,144.5C 129.514,143.326 130.847,142.66 132.5,142.5C 134.027,142.573 135.027,141.906 135.5,140.5C 189.56,109.126 243.894,78.1257 298.5,47.5C 371.26,88.717 443.927,130.217 516.5,172C 517.665,256.43 517.832,340.93 517,425.5C 472.752,450.707 428.585,476.04 384.5,501.5C 383.833,417.833 383.167,334.167 382.5,250.5C 355.703,234.866 329.036,219.032 302.5,203C 300.635,201.699 298.635,201.365 296.5,202C 269.964,218.032 243.297,233.866 216.5,249.5C 215.833,333.5 215.167,417.5 214.5,501.5C 170.088,476.212 125.921,450.545 82,424.5C 81.5,374.168 81.3333,323.834 81.5,273.5 Z"/></g>
<g><path style="opacity:0.769" fill="#7188b1" d="M 135.5,140.5 C 135.027,141.906 134.027,142.573 132.5,142.5C 132.973,141.094 133.973,140.427 135.5,140.5 Z"/></g>
<g><path style="opacity:0.761" fill="#768db4" d="M 128.5,144.5 C 128.027,145.906 127.027,146.573 125.5,146.5C 125.973,145.094 126.973,144.427 128.5,144.5 Z"/></g>
<g><path style="opacity:0.863" fill="#7289b2" d="M 109.5,155.5 C 109.027,156.906 108.027,157.573 106.5,157.5C 106.973,156.094 107.973,155.427 109.5,155.5 Z"/></g>
<g><path style="opacity:0.835" fill="#788eb5" d="M 102.5,159.5 C 102.027,160.906 101.027,161.573 99.5,161.5C 99.9731,160.094 100.973,159.427 102.5,159.5 Z"/></g>
<g><path style="opacity:0.831" fill="#7e94b8" d="M 95.5,163.5 C 95.0269,164.906 94.0269,165.573 92.5,165.5C 92.9731,164.094 93.9731,163.427 95.5,163.5 Z"/></g>
<g><path style="opacity:0.4" fill="#95a7c5" d="M 90.5,166.5 C 89.3406,168.25 87.674,169.25 85.5,169.5C 86.6594,167.75 88.326,166.75 90.5,166.5 Z"/></g>
<g><path style="opacity:0.331" fill="#5b79a6" d="M 83.5,170.5 C 83.2172,171.289 82.7172,171.956 82,172.5C 81.5,206.165 81.3333,239.832 81.5,273.5C 80.3358,239.669 80.1691,205.669 81,171.5C 81.6708,170.748 82.5041,170.414 83.5,170.5 Z"/></g>
<g><path style="opacity:1" fill="#a021f0" d="M 298.5,226.5 C 319.224,237.366 339.558,249.033 359.5,261.5C 360.667,346.165 360.833,430.831 360,515.5C 339.752,527.04 319.585,538.707 299.5,550.5C 279.088,539.212 258.921,527.546 239,515.5C 238.333,431.167 238.333,346.833 239,262.5C 259.004,250.637 278.838,238.637 298.5,226.5 Z"/></g>
</svg>
